<?xml version="1.0" encoding="UTF-8"?>
<!DOCTYPE svg PUBLIC "-//W3C//DTD SVG 1.1//EN" "http://www.w3.org/Graphics/SVG/1.1/DTD/svg11.dtd">
<!-- Creator: CorelDRAW X7 -->
<svg xmlns="http://www.w3.org/2000/svg" xml:space="preserve" width="32.5086mm" height="3.75mm" version="1.1" style="shape-rendering:geometricPrecision; text-rendering:geometricPrecision; image-rendering:optimizeQuality; fill-rule:evenodd; clip-rule:evenodd"
viewBox="0 0 8275 955"
 xmlns:xlink="http://www.w3.org/1999/xlink">
 <defs>
  <style type="text/css">
   <![CDATA[
    .fil2 {fill:#FEFEFE}
    .fil1 {fill:#4E565A}
    .fil0 {fill:#4E565A;fill-rule:nonzero}
   ]]>
  </style>
 </defs>
 <g id="Слой_x0020_1">
  <metadata id="CorelCorpID_0Corel-Layer"/>
  <path class="fil0" d="M723 385l42 0c31,0 55,-24 55,-55l0 -106c0,-31 -25,-55 -55,-55l-42 0c-31,0 -55,24 -55,55l0 106c0,31 24,55 55,55zm-2 -27c-14,0 -25,-12 -25,-26l0 -110c0,-14 11,-25 25,-25l46 0c14,0 26,11 26,25l0 110c0,14 -12,26 -27,26l-45 0zm205 27l44 0c30,0 55,-24 55,-55l0 -27c0,-31 -25,-55 -55,-55l-44 0c-3,0 -12,0 -18,3l11 -54 95 0 0 -28 -117 0 -24 114 27 9c4,-13 14,-16 24,-16l48 0c14,0 25,10 25,25l0 31c0,14 -10,26 -25,26l-48 0c-16,0 -23,-10 -26,-23l-1 -6 -26 7c5,27 22,49 55,49zm205 0l42 0c30,0 55,-24 55,-55l0 -106c0,-31 -25,-55 -55,-55l-42 0c-31,0 -55,24 -55,55l0 106c0,31 24,55 55,55zm-2 -27c-15,0 -25,-12 -25,-26l0 -110c0,-14 10,-25 25,-25l46 0c14,0 25,11 25,25l0 110c0,14 -11,26 -26,26l-45 0zm298 27l44 0c30,0 55,-24 55,-55l0 -27c0,-31 -25,-55 -55,-55l-44 0c-3,0 -13,0 -18,3l11 -54 95 0 0 -28 -117 0 -24 114 27 9c3,-13 13,-16 24,-16l47 0c15,0 26,10 26,25l0 31c0,14 -11,26 -26,26l-48 0c-15,0 -23,-10 -25,-23l-2 -6 -26 7c6,27 23,49 56,49zm205 0l41 0c31,0 55,-24 55,-55l0 -16c0,-12 -5,-31 -18,-41 13,-10 18,-28 18,-41l0 -8c0,-31 -24,-55 -55,-55l-41 0c-31,0 -56,24 -56,55l0 8c0,13 6,30 19,41 -13,10 -19,28 -19,41l0 16c0,31 25,55 56,55zm-2 -27c-15,0 -26,-12 -26,-26l0 -20c0,-12 9,-26 26,-26l45 0c17,0 26,14 26,26l0 20c0,14 -11,26 -26,26l-45 0zm0 -98c-17,0 -26,-13 -26,-26l0 -12c0,-14 11,-25 26,-25l45 0c15,0 26,10 26,25l0 12c0,13 -9,26 -26,26l-45 0zm206 125l41 0c31,0 55,-24 55,-55l0 -16c0,-12 -6,-31 -18,-41 13,-10 18,-28 18,-41l0 -8c0,-31 -24,-55 -55,-55l-41 0c-31,0 -56,24 -56,55l0 8c0,13 5,30 19,41 -13,10 -19,28 -19,41l0 16c0,31 25,55 56,55zm-3 -27c-14,0 -25,-12 -25,-26l0 -20c0,-12 9,-26 25,-26l46 0c17,0 26,14 26,26l0 20c0,14 -11,26 -26,26l-46 0zm0 -98c-16,0 -25,-13 -25,-26l0 -12c0,-14 11,-25 25,-25l46 0c15,0 26,10 26,25l0 12c0,13 -9,26 -26,26l-46 0zm270 125l31 0 95 -191 0 -25 -152 0 0 28 120 0 -94 188zm178 0l152 0 0 -27 -123 0 0 -9c0,-14 5,-18 21,-28l69 -40c18,-11 33,-26 33,-46l0 -14c0,-31 -22,-52 -53,-52l-45 0c-30,0 -48,21 -53,48l-1 4 26 6 1 -8c3,-12 12,-22 26,-22l46 0c15,0 26,11 26,25l0 7c0,13 -8,21 -19,28l-84 50c-17,10 -22,28 -22,46l0 32zm352 0l41 0c31,0 55,-24 55,-55l0 -16c0,-12 -5,-31 -18,-41 13,-10 18,-28 18,-41l0 -8c0,-31 -24,-55 -55,-55l-41 0c-31,0 -56,24 -56,55l0 8c0,13 6,30 19,41 -13,10 -19,28 -19,41l0 16c0,31 25,55 56,55zm-2 -27c-15,0 -26,-12 -26,-26l0 -20c0,-12 9,-26 26,-26l45 0c17,0 26,14 26,26l0 20c0,14 -11,26 -26,26l-45 0zm0 -98c-17,0 -26,-13 -26,-26l0 -12c0,-14 11,-25 26,-25l45 0c15,0 26,10 26,25l0 12c0,13 -9,26 -26,26l-45 0zm169 125l115 0 0 -27 -43 0 0 -189 -67 0 0 27 40 0 0 162 -45 0 0 27zm548 0l41 0c31,0 55,-24 55,-55l0 -106c0,-31 -24,-55 -55,-55l-42 0c-31,0 -55,24 -55,55l0 106c0,31 25,55 56,55zm-2 -27c-15,0 -26,-12 -26,-26l0 -110c0,-14 11,-25 26,-25l45 0c15,0 26,11 26,25l0 110c0,14 -12,26 -26,26l-45 0zm204 27l44 0c30,0 54,-24 54,-54l0 -30c0,-30 -24,-53 -54,-53l-41 0c-11,0 -24,3 -30,13l0 -39c0,-14 11,-25 26,-25l46 0c18,0 24,13 26,23l2 7 26 -7c-6,-28 -23,-51 -56,-51l-42 0c-31,0 -55,24 -55,55l0 107c0,29 22,54 54,54zm-1 -27c-15,0 -25,-12 -25,-26l0 -31c0,-15 11,-26 28,-26l43 0c14,0 25,11 25,25l0 32c0,14 -11,26 -25,26l-46 0zm207 27l41 0c31,0 55,-24 55,-55l0 -16c0,-12 -6,-31 -18,-41 13,-10 18,-28 18,-41l0 -8c0,-31 -24,-55 -55,-55l-41 0c-31,0 -56,24 -56,55l0 8c0,13 5,30 19,41 -13,10 -19,28 -19,41l0 16c0,31 25,55 56,55zm-3 -27c-14,0 -25,-12 -25,-26l0 -20c0,-12 9,-26 25,-26l46 0c17,0 26,14 26,26l0 20c0,14 -11,26 -26,26l-46 0zm0 -98c-16,0 -25,-13 -25,-26l0 -12c0,-14 11,-25 25,-25l46 0c15,0 26,10 26,25l0 12c0,13 -9,26 -26,26l-46 0zm300 125l41 0c31,0 55,-24 55,-55l0 -15c0,-15 -5,-31 -18,-41 12,-10 18,-27 18,-42l0 -8c0,-31 -24,-55 -55,-55l-42 0c-34,0 -51,23 -56,52l26 7 2 -9c3,-12 10,-22 26,-22l46 0c15,0 26,11 26,25l0 12c0,15 -7,26 -23,26l-40 0 0 27 40 0c16,0 23,12 23,26l0 19c0,14 -11,26 -26,26l-46 0c-15,0 -22,-11 -25,-23l-3 -8 -25 7c5,28 22,51 56,51zm249 0l28 0 0 -51 23 0 0 -27 -23 0 0 -138 -29 0 -100 139 0 26 101 0 0 51zm-71 -78l71 -96 0 96 -71 0zm200 78l31 0 95 -191 0 -25 -152 0 0 28 120 0 -94 188zm326 0l41 0c31,0 55,-24 55,-55l0 -16c0,-12 -6,-31 -18,-41 13,-10 18,-28 18,-41l0 -8c0,-31 -24,-55 -55,-55l-41 0c-31,0 -56,24 -56,55l0 8c0,13 5,30 19,41 -13,10 -19,28 -19,41l0 16c0,31 25,55 56,55zm-2 -27c-15,0 -26,-12 -26,-26l0 -20c0,-12 9,-26 26,-26l45 0c17,0 26,14 26,26l0 20c0,14 -11,26 -26,26l-45 0zm0 -98c-17,0 -26,-13 -26,-26l0 -12c0,-14 11,-25 26,-25l45 0c15,0 26,10 26,25l0 12c0,13 -9,26 -26,26l-45 0zm206 125l41 0c31,0 56,-24 56,-55l0 -107c0,-29 -23,-54 -54,-54l-44 0c-31,0 -54,24 -54,54l0 28c0,30 24,54 54,54l41 0c10,0 24,-4 29,-14l0 41c0,14 -11,26 -25,26l-47 0c-15,0 -22,-11 -25,-23l-3 -8 -25 7c5,28 22,51 56,51zm-2 -108c-15,0 -26,-11 -26,-25l0 -30c0,-14 11,-25 26,-25l46 0c14,0 25,11 25,25l0 30c0,14 -11,25 -29,25l-42 0zm269 108l31 0 95 -191 0 -25 -152 0 0 28 120 0 -94 188zm233 0l42 0c30,0 55,-24 55,-55l0 -16c0,-12 -6,-31 -19,-41 13,-10 19,-28 19,-41l0 -8c0,-31 -25,-55 -55,-55l-42 0c-31,0 -55,24 -55,55l0 8c0,13 5,30 19,41 -14,10 -19,28 -19,41l0 16c0,31 24,55 55,55zm-2 -27c-15,0 -25,-12 -25,-26l0 -20c0,-12 8,-26 25,-26l46 0c16,0 25,14 25,26l0 20c0,14 -11,26 -25,26l-46 0zm0 -98c-17,0 -26,-13 -26,-26l0 -12c0,-14 11,-25 26,-25l46 0c14,0 25,10 25,25l0 12c0,13 -9,26 -25,26l-46 0zm606 125l42 0c30,0 55,-24 55,-55l0 -106c0,-31 -25,-55 -55,-55l-42 0c-31,0 -55,24 -55,55l0 106c0,31 24,55 55,55zm-2 -27c-15,0 -26,-12 -26,-26l0 -110c0,-14 11,-25 26,-25l45 0c15,0 26,11 26,25l0 110c0,14 -12,26 -26,26l-45 0zm205 27l44 0c30,0 55,-24 55,-55l0 -27c0,-31 -25,-55 -55,-55l-44 0c-3,0 -13,0 -18,3l11 -54 95 0 0 -28 -117 0 -24 114 27 9c3,-13 13,-16 24,-16l47 0c15,0 26,10 26,25l0 31c0,14 -11,26 -26,26l-48 0c-15,0 -23,-10 -25,-23l-2 -6 -26 7c6,27 23,49 56,49zm205 0l41 0c31,0 55,-24 55,-55l0 -106c0,-31 -24,-55 -55,-55l-42 0c-31,0 -55,24 -55,55l0 106c0,31 25,55 56,55zm-2 -27c-15,0 -26,-12 -26,-26l0 -110c0,-14 11,-25 26,-25l45 0c14,0 26,11 26,25l0 110c0,14 -12,26 -26,26l-45 0zm297 27l44 0c31,0 55,-24 55,-55l0 -27c0,-31 -24,-55 -55,-55l-44 0c-3,0 -12,0 -17,3l10 -54 96 0 0 -28 -117 0 -24 114 26 9c4,-13 14,-16 24,-16l48 0c14,0 26,10 26,25l0 31c0,14 -11,26 -26,26l-48 0c-16,0 -23,-10 -26,-23l-1 -6 -26 7c6,27 22,49 55,49zm176 0l31 0 95 -191 0 -25 -152 0 0 28 120 0 -94 188zm204 0l31 0 95 -191 0 -25 -152 0 0 28 120 0 -94 188zm324 0l44 0c30,0 54,-24 54,-54l0 -30c0,-30 -24,-53 -54,-53l-41 0c-11,0 -24,3 -29,13l0 -39c0,-14 10,-25 25,-25l46 0c18,0 24,13 26,23l2 7 26 -7c-6,-28 -23,-51 -56,-51l-42 0c-31,0 -55,24 -55,55l0 107c0,29 22,54 54,54zm-1 -27c-15,0 -25,-12 -25,-26l0 -31c0,-15 11,-26 28,-26l43 0c14,0 25,11 25,25l0 32c0,14 -11,26 -25,26l-46 0zm207 27l42 0c30,0 55,-24 55,-55l0 -107c0,-29 -23,-54 -54,-54l-44 0c-31,0 -54,24 -54,54l0 28c0,30 24,54 54,54l41 0c10,0 24,-4 30,-14l0 41c0,14 -12,26 -26,26l-46 0c-16,0 -23,-11 -26,-23l-2 -8 -26 7c6,28 23,51 56,51zm-2 -108c-14,0 -25,-11 -25,-25l0 -30c0,-14 11,-25 25,-25l46 0c14,0 25,11 25,25l0 30c0,14 -11,25 -29,25l-42 0zm296 108l45 0c30,0 53,-24 53,-54l0 -30c0,-30 -23,-53 -53,-53l-42 0c-10,0 -24,3 -29,13l0 -39c0,-14 11,-25 26,-25l46 0c17,0 23,13 26,23l2 7 25 -7c-5,-28 -22,-51 -56,-51l-41 0c-31,0 -56,24 -56,55l0 107c0,29 23,54 54,54zm0 -27c-15,0 -26,-12 -26,-26l0 -31c0,-15 11,-26 29,-26l42 0c14,0 26,11 26,25l0 32c0,14 -11,26 -26,26l-45 0zm252 27l28 0 0 -51 23 0 0 -27 -23 0 0 -138 -29 0 -100 139 0 26 101 0 0 51zm-70 -78l70 -96 0 96 -70 0zm-5054 133l25 0 0 -295 -25 0 0 295zm2718 0l24 0 0 -295 -24 0 0 295z"/>
  <rect class="fil1" width="498" height="488"/>
  <g id="_781667488">
   <path class="fil2" d="M121 149c0,46 26,110 50,149l22 35c10,14 26,34 39,47 25,25 57,56 96,38l18 -9c-8,-15 -17,-29 -25,-44 -4,-8 -9,-15 -13,-23 -2,-4 -4,-7 -6,-11 -3,-4 -4,-7 -7,-11 -4,1 -11,6 -21,4 -8,-1 -13,-3 -20,-7 -34,-21 -83,-109 -40,-138 -1,-3 -5,-7 -6,-11 -6,-9 -44,-74 -45,-78 -8,2 -23,15 -29,21 -8,9 -13,21 -13,38z"/>
   <path class="fil2" d="M301 311c0,4 2,7 3,10l45 77c8,14 18,6 26,1 20,-11 29,-12 17,-32l-21 -36c-1,-3 -2,-4 -4,-6l-17 -31c-10,-16 -18,-7 -34,1 -7,4 -15,8 -15,16z"/>
   <path class="fil2" d="M170 82c0,6 -1,5 2,10l24 42c4,5 23,39 25,41 9,7 17,0 28,-7 18,-10 22,-12 10,-30l-41 -72c-9,-15 -17,-8 -32,1 -7,4 -16,7 -16,15z"/>
  </g>
  <path class="fil0" d="M2394 672l-32 84c-5,13 -9,25 -13,38l-1 0c-4,-13 -8,-25 -13,-38l-32 -84 -28 0 0 208 26 0 0 -99c0,-20 -2,-39 -2,-56l1 0c5,17 10,34 16,50l19 52 26 0 20 -52c6,-16 11,-33 16,-50l1 0c-1,17 -2,36 -2,56l0 99 26 0 0 -208 -28 0zm82 212c11,0 19,-9 19,-22 0,-13 -8,-21 -19,-21 -11,0 -19,8 -19,21 0,13 8,22 19,22zm229 -281l0 141c-12,5 -22,7 -32,7 -29,0 -46,-17 -46,-55l0 -93 -28 0 0 93c0,55 28,86 72,86 11,0 23,-3 34,-8l0 106 28 0 0 -277 -28 0zm169 212c-3,27 -14,38 -37,38 -21,0 -34,-14 -34,-45l0 -19 96 0 0 -47c0,-48 -25,-76 -62,-76 -38,0 -61,28 -61,76l0 66c0,48 23,76 60,76 39,0 62,-25 65,-69l-27 0zm-37 -119c22,0 35,15 35,46l0 21 -69 0 0 -21c0,-31 13,-46 34,-46zm165 -29c-17,0 -33,10 -42,24l-3 -20 -20 0 0 280 26 0 0 -87c10,13 24,20 39,20 35,0 57,-28 57,-79l0 -58c0,-52 -23,-80 -57,-80zm30 138c0,35 -12,50 -35,50 -21,0 -34,-20 -34,-50l0 -59c0,-34 15,-50 34,-50 22,0 35,15 35,51l0 58zm151 -133l0 86 -60 0 0 -86 -27 0 0 208 27 0 0 -93 60 0 0 93 28 0 0 -208 -28 0zm84 -37c11,0 19,-9 19,-22 0,-13 -8,-21 -19,-21 -11,0 -19,8 -19,21 0,13 8,22 19,22zm-13 245l27 0 0 -208 -27 0 0 208zm157 -111c14,-10 21,-26 21,-41 0,-35 -20,-56 -57,-56l-51 0 0 208 56 0c40,0 61,-23 61,-61 0,-21 -10,-41 -30,-50zm-61 -70l24 0c20,0 31,11 31,30 0,18 -11,30 -31,30l-24 0 0 -60zm30 153l-30 0 0 -66 30 0c23,0 34,12 34,33 0,21 -11,33 -34,33zm200 73l26 0 0 -74 -21 0 0 -179 -27 0 0 179 -59 0 0 -179 -27 0 0 208 108 0 0 45zm68 -290c11,0 19,-9 19,-22 0,-13 -8,-21 -19,-21 -12,0 -19,8 -19,21 0,13 7,22 19,22zm-14 245l28 0 0 -208 -28 0 0 208zm66 -36l-7 88 18 0 18 -88 -29 0zm224 -75c13,-10 20,-26 20,-41 0,-35 -20,-56 -56,-56l-51 0 0 208 55 0c41,0 61,-23 61,-61 0,-21 -9,-41 -29,-50zm-61 -70l24 0c20,0 30,11 30,30 0,18 -10,30 -30,30l-24 0 0 -60zm29 153l-29 0 0 -66 29 0c23,0 34,12 34,33 0,21 -11,33 -34,33zm175 -180l-36 141 -42 -141 -29 0 59 186 -10 37c-4,17 -9,30 -24,30l-10 0 0 30 14 0c27,0 39,-22 47,-55l60 -228 -29 0zm27 210c34,0 49,-30 52,-90 2,-24 4,-64 5,-92l46 0 0 180 27 0 0 -208 -100 0c0,39 -2,81 -4,115 -3,37 -6,65 -26,65l0 30zm185 2c11,0 18,-9 18,-22 0,-13 -7,-21 -18,-21 -12,0 -19,8 -19,21 0,13 7,22 19,22zm248 -281l-114 0 0 277 29 0 0 -247 85 0 0 -30zm50 281c38,0 62,-27 62,-77l0 -63c0,-50 -24,-78 -62,-78 -38,0 -63,28 -63,78l0 63c0,50 25,77 63,77zm0 -30c-22,0 -35,-14 -35,-47l0 -63c0,-33 13,-47 35,-47 22,0 35,14 35,47l0 63c0,33 -13,47 -35,47zm81 28c34,0 49,-30 53,-90 1,-24 3,-64 4,-92l47 0 0 180 27 0 0 -208 -101 0c0,39 -2,81 -4,115 -2,37 -6,65 -26,65l0 30zm232 2c38,0 62,-27 62,-77l0 -63c0,-50 -24,-78 -62,-78 -38,0 -63,28 -63,78l0 63c0,50 25,77 63,77zm0 -30c-22,0 -35,-14 -35,-47l0 -63c0,-33 13,-47 35,-47 22,0 35,14 35,47l0 63c0,33 -13,47 -35,47zm188 -85c14,-10 21,-26 21,-41 0,-35 -20,-56 -57,-56l-51 0 0 208 55 0c41,0 62,-23 62,-61 0,-21 -10,-41 -30,-50zm-61 -70l24 0c20,0 31,11 31,30 0,18 -11,30 -31,30l-24 0 0 -60zm30 153l-30 0 0 -66 30 0c23,0 34,12 34,33 0,21 -11,33 -34,33zm179 -180l0 86 -60 0 0 -86 -27 0 0 208 27 0 0 -93 60 0 0 93 27 0 0 -208 -27 0zm126 -6c-35,0 -58,25 -60,63l28 0c1,-21 14,-33 31,-33 21,0 31,16 31,43l0 18 -31 0c-40,0 -64,22 -64,63 0,40 23,65 56,65 21,0 34,-11 42,-25l2 20 23 0 0 -142c0,-45 -21,-72 -58,-72zm30 153c0,22 -13,37 -33,37 -21,0 -35,-12 -35,-35 0,-24 13,-36 37,-36l31 0 0 34zm66 25l-7 88 18 0 18 -88 -29 0zm126 36l121 0 0 -30 -93 0c0,-70 91,-110 91,-187 0,-35 -22,-65 -59,-65 -35,0 -57,28 -59,72l27 0c1,-28 12,-42 32,-42 20,0 31,16 31,36 0,63 -91,100 -91,192l0 24zm204 -165l51 -91 0 -22 -109 0 0 29 74 0 -46 86 0 24 21 0c24,0 38,13 38,45l0 18c0,34 -12,49 -34,49 -19,0 -33,-11 -34,-48l-28 0c1,52 26,79 62,79 39,0 61,-28 61,-80l0 -19c0,-40 -18,-69 -56,-70zm71 -113l0 30 85 0 -64 248 29 0 66 -258 0 -20 -116 0z"/>
 </g>
</svg>
