<?xml version="1.0" encoding="UTF-8"?>
<!DOCTYPE svg PUBLIC "-//W3C//DTD SVG 1.1//EN" "http://www.w3.org/Graphics/SVG/1.1/DTD/svg11.dtd">
<!-- Creator: CorelDRAW X7 -->
<svg xmlns="http://www.w3.org/2000/svg" xml:space="preserve" width="19.3016mm" height="3.1177mm" version="1.1" style="shape-rendering:geometricPrecision; text-rendering:geometricPrecision; image-rendering:optimizeQuality; fill-rule:evenodd; clip-rule:evenodd"
viewBox="0 0 1971 318"
 xmlns:xlink="http://www.w3.org/1999/xlink">
 <defs>
  <style type="text/css">
   <![CDATA[
    .str0 {stroke:#5B5B5B;stroke-width:10.2139;stroke-linejoin:round}
    .fil0 {fill:none;fill-rule:nonzero}
    .fil1 {fill:#5B5B5B;fill-rule:nonzero}
   ]]>
  </style>
 </defs>
 <g id="Слой_x0020_1">
  <metadata id="CorelCorpID_0Corel-Layer"/>
  <g>
   <path class="fil0 str0" d="M27 101l17 0c12,0 22,-9 22,-22l0 -42c0,-13 -10,-22 -22,-22l-17 0c-12,0 -22,9 -22,22l0 42c0,13 10,22 22,22zm-1 -10c-5,0 -10,-5 -10,-11l0 -44c0,-6 5,-10 10,-10l19 0c5,0 10,4 10,10l0 44c0,6 -5,11 -11,11l-18 0zm83 10l17 0c12,0 22,-9 22,-22l0 -11c0,-12 -10,-22 -22,-22l-17 0c-2,0 -5,0 -8,2l5 -22 38 0 0 -11 -47 0 -10 45 11 4c2,-5 6,-6 10,-6l19 0c6,0 10,4 10,10l0 12c0,6 -4,11 -10,11l-19 0c-7,0 -9,-4 -11,-10l0 -2 -10 3c2,11 8,19 22,19zm82 0l17 0c12,0 22,-9 22,-22l0 -42c0,-13 -10,-22 -22,-22l-17 0c-13,0 -22,9 -22,22l0 42c0,13 9,22 22,22zm-1 -10c-6,0 -10,-5 -10,-11l0 -44c0,-6 4,-10 10,-10l18 0c6,0 10,4 10,10l0 44c0,6 -4,11 -10,11l-18 0zm120 10l17 0c12,0 22,-9 22,-22l0 -11c0,-12 -10,-22 -22,-22l-17 0c-2,0 -6,0 -8,2l5 -22 38 0 0 -11 -47 0 -10 45 11 4c1,-5 5,-6 10,-6l19 0c6,0 10,4 10,10l0 12c0,6 -4,11 -10,11l-20 0c-6,0 -9,-4 -10,-10l-1 -2 -10 3c2,11 9,19 23,19l0 0zm82 0l16 0c13,0 22,-9 22,-22l0 -6c0,-5 -2,-13 -7,-17 5,-4 7,-11 7,-16l0 -3c0,-13 -9,-22 -22,-22l-16 0c-13,0 -23,9 -23,22l0 3c0,5 3,12 8,16 -5,4 -8,12 -8,17l0 6c0,13 10,22 23,22zm-1 -10c-6,0 -10,-5 -10,-11l0 -8c0,-5 3,-10 10,-10l18 0c7,0 10,5 10,10l0 8c0,6 -4,11 -10,11l-18 0zm0 -40c-7,0 -10,-5 -10,-10l0 -5c0,-6 4,-10 10,-10l18 0c6,0 10,4 10,10l0 5c0,5 -3,10 -10,10l-18 0zm83 50l16 0c12,0 22,-9 22,-22l0 -6c0,-5 -2,-13 -7,-17 5,-4 7,-11 7,-16l0 -3c0,-13 -10,-22 -22,-22l-16 0c-13,0 -23,9 -23,22l0 3c0,5 2,12 8,16 -5,4 -8,12 -8,17l0 6c0,13 10,22 23,22zm-2 -10c-5,0 -10,-5 -10,-11l0 -8c0,-5 4,-10 10,-10l19 0c7,0 10,5 10,10l0 8c0,6 -4,11 -10,11l-19 0zm0 -40c-6,0 -10,-5 -10,-10l0 -5c0,-6 5,-10 10,-10l19 0c6,0 10,4 10,10l0 5c0,5 -3,10 -10,10l-19 0zm109 50l12 0 38 -76 0 -10 -61 0 0 11 48 0 -37 75 0 0zm71 0l61 0 0 -10 -49 0 0 -4c0,-6 2,-7 8,-11l28 -16c7,-5 13,-11 13,-19l0 -5c0,-13 -9,-21 -21,-21l-18 0c-12,0 -20,8 -22,19l0 2 10 2 1 -3c1,-5 5,-9 10,-9l19 0c6,0 10,4 10,10l0 3c0,5 -3,8 -7,11l-34 20c-7,4 -9,11 -9,19l0 12 0 0zm141 0l17 0c12,0 22,-9 22,-22l0 -6c0,-5 -2,-13 -8,-17 6,-4 8,-11 8,-16l0 -3c0,-13 -10,-22 -22,-22l-17 0c-12,0 -22,9 -22,22l0 3c0,5 2,12 7,16 -5,4 -7,12 -7,17l0 6c0,13 10,22 22,22zm-1 -10c-6,0 -10,-5 -10,-11l0 -8c0,-5 4,-10 10,-10l18 0c7,0 11,5 11,10l0 8c0,6 -5,11 -11,11l-18 0zm0 -40c-6,0 -10,-5 -10,-10l0 -5c0,-6 4,-10 10,-10l18 0c6,0 11,4 11,10l0 5c0,5 -4,10 -11,10l-18 0zm68 50l46 0 0 -10 -17 0 0 -76 -27 0 0 11 16 0 0 65 -18 0 0 10 0 0zm220 0l16 0c13,0 22,-9 22,-22l0 -42c0,-13 -9,-22 -22,-22l-16 0c-13,0 -22,9 -22,22l0 42c0,13 10,22 22,22zm-1 -10c-6,0 -10,-5 -10,-11l0 -44c0,-6 4,-10 10,-10l18 0c6,0 11,4 11,10l0 44c0,6 -5,11 -11,11l-18 0zm82 10l18 0c12,0 21,-9 21,-21l0 -12c0,-12 -9,-22 -21,-22l-17 0c-4,0 -9,2 -12,6l0 -16c0,-6 5,-10 11,-10l18 0c7,0 10,5 10,9l1 3 11 -3c-3,-11 -10,-20 -23,-20l-17 0c-12,0 -22,9 -22,22l0 43c0,11 9,21 22,21zm0 -10c-6,0 -10,-5 -10,-11l0 -12c0,-6 4,-11 11,-11l17 0c6,0 10,5 10,10l0 13c0,6 -4,11 -10,11l-18 0 0 0zm83 10l16 0c12,0 22,-9 22,-22l0 -6c0,-5 -2,-13 -7,-17 5,-4 7,-11 7,-16l0 -3c0,-13 -10,-22 -22,-22l-16 0c-13,0 -23,9 -23,22l0 3c0,5 2,12 8,16 -5,4 -8,12 -8,17l0 6c0,13 10,22 23,22zm-2 -10c-5,0 -10,-5 -10,-11l0 -8c0,-5 4,-10 10,-10l19 0c7,0 10,5 10,10l0 8c0,6 -4,11 -10,11l-19 0zm0 -40c-6,0 -10,-5 -10,-10l0 -5c0,-6 5,-10 10,-10l19 0c6,0 10,4 10,10l0 5c0,5 -3,10 -10,10l-19 0zm121 50l16 0c13,0 22,-9 22,-22l0 -6c0,-6 -2,-12 -7,-16 5,-4 7,-11 7,-17l0 -3c0,-13 -9,-22 -22,-22l-17 0c-13,0 -20,9 -22,21l10 2 1 -3c1,-5 4,-9 11,-9l18 0c6,0 10,4 10,10l0 5c0,6 -2,10 -9,10l-16 0 0 11 16 0c7,0 9,5 9,10l0 8c0,6 -4,11 -10,11l-18 0c-6,0 -9,-5 -10,-10l-2 -3 -10 3c2,11 9,20 23,20l0 0zm100 0l11 0 0 -20 9 0 0 -11 -9 0 0 -55 -12 0 -40 55 0 11 41 0 0 20 0 0zm-29 -31l29 -38 0 38 -29 0zm80 31l13 0 38 -76 0 -10 -61 0 0 11 48 0 -38 75 0 0zm131 0l17 0c12,0 22,-9 22,-22l0 -6c0,-5 -3,-13 -8,-17 6,-4 8,-11 8,-16l0 -3c0,-13 -10,-22 -22,-22l-17 0c-12,0 -22,9 -22,22l0 3c0,5 2,12 7,16 -5,4 -7,12 -7,17l0 6c0,13 10,22 22,22zm-1 -10c-6,0 -10,-5 -10,-11l0 -8c0,-5 3,-10 10,-10l18 0c7,0 11,5 11,10l0 8c0,6 -5,11 -11,11l-18 0zm0 -40c-7,0 -10,-5 -10,-10l0 -5c0,-6 4,-10 10,-10l18 0c6,0 11,4 11,10l0 5c0,5 -4,10 -11,10l-18 0zm83 50l16 0c13,0 23,-9 23,-22l0 -43c0,-11 -9,-21 -22,-21l-18 0c-12,0 -21,9 -21,21l0 12c0,12 9,21 21,21l17 0c4,0 10,-1 12,-5l0 16c0,6 -5,11 -10,11l-19 0c-6,0 -9,-5 -10,-10l-2 -3 -10 3c2,11 9,20 23,20l0 0zm-1 -43c-6,0 -10,-4 -10,-10l0 -12c0,-6 4,-10 10,-10l19 0c5,0 10,4 10,10l0 12c0,6 -5,10 -12,10l-17 0zm108 43l12 0 39 -76 0 -10 -61 0 0 11 48 0 -38 75 0 0zm93 0l17 0c12,0 22,-9 22,-22l0 -6c0,-5 -2,-13 -7,-17 5,-4 7,-11 7,-16l0 -3c0,-13 -10,-22 -22,-22l-17 0c-12,0 -22,9 -22,22l0 3c0,5 2,12 8,16 -6,4 -8,12 -8,17l0 6c0,13 10,22 22,22zm0 -10c-6,0 -10,-5 -10,-11l0 -8c0,-5 3,-10 10,-10l18 0c6,0 10,5 10,10l0 8c0,6 -4,11 -10,11l-18 0zm0 -40c-7,0 -11,-5 -11,-10l0 -5c0,-6 5,-10 11,-10l18 0c6,0 10,4 10,10l0 5c0,5 -4,10 -10,10l-18 0zm-946 72l10 0 0 -118 -10 0 0 118z"/>
   <path id="1" class="fil1" d="M27 101l17 0c12,0 22,-9 22,-22l0 -42c0,-13 -10,-22 -22,-22l-17 0c-12,0 -22,9 -22,22l0 42c0,13 10,22 22,22zm-1 -10c-5,0 -10,-5 -10,-11l0 -44c0,-6 5,-10 10,-10l19 0c5,0 10,4 10,10l0 44c0,6 -5,11 -11,11l-18 0zm83 10l17 0c12,0 22,-9 22,-22l0 -11c0,-12 -10,-22 -22,-22l-17 0c-2,0 -5,0 -8,2l5 -22 38 0 0 -11 -47 0 -10 45 11 4c2,-5 6,-6 10,-6l19 0c6,0 10,4 10,10l0 12c0,6 -4,11 -10,11l-19 0c-7,0 -9,-4 -11,-10l0 -2 -10 3c2,11 8,19 22,19zm82 0l17 0c12,0 22,-9 22,-22l0 -42c0,-13 -10,-22 -22,-22l-17 0c-13,0 -22,9 -22,22l0 42c0,13 9,22 22,22zm-1 -10c-6,0 -10,-5 -10,-11l0 -44c0,-6 4,-10 10,-10l18 0c6,0 10,4 10,10l0 44c0,6 -4,11 -10,11l-18 0zm120 10l17 0c12,0 22,-9 22,-22l0 -11c0,-12 -10,-22 -22,-22l-17 0c-2,0 -6,0 -8,2l5 -22 38 0 0 -11 -47 0 -10 45 11 4c1,-5 5,-6 10,-6l19 0c6,0 10,4 10,10l0 12c0,6 -4,11 -10,11l-20 0c-6,0 -9,-4 -10,-10l-1 -2 -10 3c2,11 9,19 23,19l0 0zm82 0l16 0c13,0 22,-9 22,-22l0 -6c0,-5 -2,-13 -7,-17 5,-4 7,-11 7,-16l0 -3c0,-13 -9,-22 -22,-22l-16 0c-13,0 -23,9 -23,22l0 3c0,5 3,12 8,16 -5,4 -8,12 -8,17l0 6c0,13 10,22 23,22zm-1 -10c-6,0 -10,-5 -10,-11l0 -8c0,-5 3,-10 10,-10l18 0c7,0 10,5 10,10l0 8c0,6 -4,11 -10,11l-18 0zm0 -40c-7,0 -10,-5 -10,-10l0 -5c0,-6 4,-10 10,-10l18 0c6,0 10,4 10,10l0 5c0,5 -3,10 -10,10l-18 0zm83 50l16 0c12,0 22,-9 22,-22l0 -6c0,-5 -2,-13 -7,-17 5,-4 7,-11 7,-16l0 -3c0,-13 -10,-22 -22,-22l-16 0c-13,0 -23,9 -23,22l0 3c0,5 2,12 8,16 -5,4 -8,12 -8,17l0 6c0,13 10,22 23,22zm-2 -10c-5,0 -10,-5 -10,-11l0 -8c0,-5 4,-10 10,-10l19 0c7,0 10,5 10,10l0 8c0,6 -4,11 -10,11l-19 0zm0 -40c-6,0 -10,-5 -10,-10l0 -5c0,-6 5,-10 10,-10l19 0c6,0 10,4 10,10l0 5c0,5 -3,10 -10,10l-19 0zm109 50l12 0 38 -76 0 -10 -61 0 0 11 48 0 -37 75 0 0zm71 0l61 0 0 -10 -49 0 0 -4c0,-6 2,-7 8,-11l28 -16c7,-5 13,-11 13,-19l0 -5c0,-13 -9,-21 -21,-21l-18 0c-12,0 -20,8 -22,19l0 2 10 2 1 -3c1,-5 5,-9 10,-9l19 0c6,0 10,4 10,10l0 3c0,5 -3,8 -7,11l-34 20c-7,4 -9,11 -9,19l0 12 0 0zm141 0l17 0c12,0 22,-9 22,-22l0 -6c0,-5 -2,-13 -8,-17 6,-4 8,-11 8,-16l0 -3c0,-13 -10,-22 -22,-22l-17 0c-12,0 -22,9 -22,22l0 3c0,5 2,12 7,16 -5,4 -7,12 -7,17l0 6c0,13 10,22 22,22zm-1 -10c-6,0 -10,-5 -10,-11l0 -8c0,-5 4,-10 10,-10l18 0c7,0 11,5 11,10l0 8c0,6 -5,11 -11,11l-18 0zm0 -40c-6,0 -10,-5 -10,-10l0 -5c0,-6 4,-10 10,-10l18 0c6,0 11,4 11,10l0 5c0,5 -4,10 -11,10l-18 0zm68 50l46 0 0 -10 -17 0 0 -76 -27 0 0 11 16 0 0 65 -18 0 0 10 0 0zm220 0l16 0c13,0 22,-9 22,-22l0 -42c0,-13 -9,-22 -22,-22l-16 0c-13,0 -22,9 -22,22l0 42c0,13 10,22 22,22zm-1 -10c-6,0 -10,-5 -10,-11l0 -44c0,-6 4,-10 10,-10l18 0c6,0 11,4 11,10l0 44c0,6 -5,11 -11,11l-18 0zm82 10l18 0c12,0 21,-9 21,-21l0 -12c0,-12 -9,-22 -21,-22l-17 0c-4,0 -9,2 -12,6l0 -16c0,-6 5,-10 11,-10l18 0c7,0 10,5 10,9l1 3 11 -3c-3,-11 -10,-20 -23,-20l-17 0c-12,0 -22,9 -22,22l0 43c0,11 9,21 22,21zm0 -10c-6,0 -10,-5 -10,-11l0 -12c0,-6 4,-11 11,-11l17 0c6,0 10,5 10,10l0 13c0,6 -4,11 -10,11l-18 0 0 0zm83 10l16 0c12,0 22,-9 22,-22l0 -6c0,-5 -2,-13 -7,-17 5,-4 7,-11 7,-16l0 -3c0,-13 -10,-22 -22,-22l-16 0c-13,0 -23,9 -23,22l0 3c0,5 2,12 8,16 -5,4 -8,12 -8,17l0 6c0,13 10,22 23,22zm-2 -10c-5,0 -10,-5 -10,-11l0 -8c0,-5 4,-10 10,-10l19 0c7,0 10,5 10,10l0 8c0,6 -4,11 -10,11l-19 0zm0 -40c-6,0 -10,-5 -10,-10l0 -5c0,-6 5,-10 10,-10l19 0c6,0 10,4 10,10l0 5c0,5 -3,10 -10,10l-19 0zm121 50l16 0c13,0 22,-9 22,-22l0 -6c0,-6 -2,-12 -7,-16 5,-4 7,-11 7,-17l0 -3c0,-13 -9,-22 -22,-22l-17 0c-13,0 -20,9 -22,21l10 2 1 -3c1,-5 4,-9 11,-9l18 0c6,0 10,4 10,10l0 5c0,6 -2,10 -9,10l-16 0 0 11 16 0c7,0 9,5 9,10l0 8c0,6 -4,11 -10,11l-18 0c-6,0 -9,-5 -10,-10l-2 -3 -10 3c2,11 9,20 23,20l0 0zm100 0l11 0 0 -20 9 0 0 -11 -9 0 0 -55 -12 0 -40 55 0 11 41 0 0 20 0 0zm-29 -31l29 -38 0 38 -29 0zm80 31l13 0 38 -76 0 -10 -61 0 0 11 48 0 -38 75 0 0zm131 0l17 0c12,0 22,-9 22,-22l0 -6c0,-5 -3,-13 -8,-17 6,-4 8,-11 8,-16l0 -3c0,-13 -10,-22 -22,-22l-17 0c-12,0 -22,9 -22,22l0 3c0,5 2,12 7,16 -5,4 -7,12 -7,17l0 6c0,13 10,22 22,22zm-1 -10c-6,0 -10,-5 -10,-11l0 -8c0,-5 3,-10 10,-10l18 0c7,0 11,5 11,10l0 8c0,6 -5,11 -11,11l-18 0zm0 -40c-7,0 -10,-5 -10,-10l0 -5c0,-6 4,-10 10,-10l18 0c6,0 11,4 11,10l0 5c0,5 -4,10 -11,10l-18 0zm83 50l16 0c13,0 23,-9 23,-22l0 -43c0,-11 -9,-21 -22,-21l-18 0c-12,0 -21,9 -21,21l0 12c0,12 9,21 21,21l17 0c4,0 10,-1 12,-5l0 16c0,6 -5,11 -10,11l-19 0c-6,0 -9,-5 -10,-10l-2 -3 -10 3c2,11 9,20 23,20l0 0zm-1 -43c-6,0 -10,-4 -10,-10l0 -12c0,-6 4,-10 10,-10l19 0c5,0 10,4 10,10l0 12c0,6 -5,10 -12,10l-17 0zm108 43l12 0 39 -76 0 -10 -61 0 0 11 48 0 -38 75 0 0zm93 0l17 0c12,0 22,-9 22,-22l0 -6c0,-5 -2,-13 -7,-17 5,-4 7,-11 7,-16l0 -3c0,-13 -10,-22 -22,-22l-17 0c-12,0 -22,9 -22,22l0 3c0,5 2,12 8,16 -6,4 -8,12 -8,17l0 6c0,13 10,22 22,22zm0 -10c-6,0 -10,-5 -10,-11l0 -8c0,-5 3,-10 10,-10l18 0c6,0 10,5 10,10l0 8c0,6 -4,11 -10,11l-18 0zm0 -40c-7,0 -11,-5 -11,-10l0 -5c0,-6 5,-10 11,-10l18 0c6,0 10,4 10,10l0 5c0,5 -4,10 -10,10l-18 0zm-946 72l10 0 0 -118 -10 0 0 118z"/>
  </g>
  <g>
   <path class="fil0 str0" d="M266 200l-13 34c-2,5 -4,10 -5,15l-1 0c-1,-5 -3,-10 -5,-15l-13 -34 -11 0 0 83 11 0 0 -39c0,-8 -1,-16 -1,-23l0 0c2,7 4,14 7,20l7 21 11 0 8 -21c2,-6 4,-13 6,-20l0 0c0,7 0,15 0,23l0 39 10 0 0 -83 -11 0 0 0zm33 85c4,0 7,-4 7,-9 0,-5 -3,-8 -7,-8 -5,0 -8,3 -8,8 0,5 3,9 8,9zm92 -113l0 57c-5,2 -9,3 -13,3 -12,0 -19,-7 -19,-23l0 -37 -11 0 0 37c0,23 11,35 29,35 4,0 9,-1 14,-3l0 42 11 0 0 -111 -11 0zm67 85c-1,11 -5,15 -15,15 -8,0 -13,-5 -13,-18l0 -7 38 0 0 -19c0,-19 -10,-31 -25,-31 -15,0 -24,12 -24,31l0 26c0,20 9,31 24,31 16,0 25,-10 26,-28l-11 0zm-15 -48c9,0 15,6 15,19l0 8 -28 0 0 -8c0,-13 5,-19 13,-19zm67 -11c-7,0 -14,4 -17,9l-1 -8 -8 0 0 113 10 0 0 -35c4,5 10,8 16,8 14,0 23,-11 23,-32l0 -23c0,-21 -10,-32 -23,-32l0 0zm12 55c0,14 -5,20 -14,20 -9,0 -14,-8 -14,-20l0 -23c0,-14 6,-21 14,-21 8,0 14,6 14,21l0 23zm60 -53l0 34 -24 0 0 -34 -11 0 0 83 11 0 0 -37 24 0 0 37 11 0 0 -83 -11 0zm34 -15c4,0 8,-4 8,-9 0,-5 -4,-8 -8,-8 -4,0 -8,3 -8,8 0,5 4,9 8,9zm-5 98l11 0 0 -83 -11 0 0 83zm63 -44c5,-4 8,-11 8,-17 0,-14 -8,-22 -23,-22l-20 0 0 83 22 0c16,0 25,-9 25,-24 0,-9 -4,-17 -12,-20l0 0zm-25 -28l10 0c8,0 12,4 12,12 0,7 -4,12 -12,12l-10 0 0 -24zm12 61l-12 0 0 -26 12 0c9,0 14,4 14,13 0,8 -5,13 -14,13zm80 29l11 0 0 -29 -9 0 0 -72 -10 0 0 72 -24 0 0 -72 -11 0 0 83 43 0 0 18zm28 -116c4,0 7,-4 7,-9 0,-5 -3,-8 -7,-8 -5,0 -8,3 -8,8 0,5 3,9 8,9zm-6 98l11 0 0 -83 -11 0 0 83zm27 -14l-3 35 7 0 7 -35 -11 0zm89 -30c6,-4 8,-11 8,-17 0,-14 -8,-22 -22,-22l-20 0 0 83 22 0c16,0 24,-9 24,-24 0,-9 -4,-17 -12,-20l0 0zm-24 -28l10 0c8,0 12,4 12,12 0,7 -4,12 -12,12l-10 0 0 -24zm12 61l-12 0 0 -26 12 0c9,0 13,4 13,13 0,8 -4,13 -13,13zm70 -72l-15 56 -16 -56 -12 0 24 74 -4 15c-2,7 -4,12 -10,12l-4 0 0 12 6 0c10,0 15,-8 18,-22l24 -91 -11 0zm11 84c13,0 19,-12 20,-36 1,-10 2,-26 2,-37l19 0 0 72 11 0 0 -83 -40 0c0,15 -1,32 -2,46 -1,15 -2,26 -10,26l0 12 0 0zm74 1c4,0 7,-4 7,-9 0,-5 -3,-8 -7,-8 -5,0 -8,3 -8,8 0,5 3,9 8,9zm99 -113l-45 0 0 111 11 0 0 -99 34 0 0 -12 0 0zm20 113c16,0 25,-11 25,-31l0 -25c0,-20 -9,-32 -25,-32 -15,0 -25,12 -25,32l0 25c0,20 10,31 25,31zm0 -12c-8,0 -14,-6 -14,-19l0 -25c0,-14 6,-19 14,-19 9,0 14,5 14,19l0 25c0,13 -5,19 -14,19zm33 11c13,0 19,-12 21,-36 0,-10 1,-26 2,-37l19 0 0 72 10 0 0 -83 -40 0c0,15 -1,32 -2,46 -1,15 -2,26 -10,26l0 12 0 0zm93 1c15,0 25,-11 25,-31l0 -25c0,-20 -10,-32 -25,-32 -15,0 -25,12 -25,32l0 25c0,20 10,31 25,31zm0 -12c-9,0 -14,-6 -14,-19l0 -25c0,-14 5,-19 14,-19 9,0 14,5 14,19l0 25c0,13 -5,19 -14,19zm75 -34c6,-4 9,-11 9,-17 0,-14 -8,-22 -23,-22l-21 0 0 83 22 0c17,0 25,-9 25,-24 0,-9 -4,-17 -12,-20l0 0zm-24 -28l9 0c8,0 13,4 13,12 0,7 -5,12 -13,12l-9 0 0 -24zm12 61l-12 0 0 -26 12 0c9,0 13,4 13,13 0,8 -4,13 -13,13zm72 -72l0 34 -24 0 0 -34 -11 0 0 83 11 0 0 -37 24 0 0 37 10 0 0 -83 -10 0zm50 -3c-14,0 -23,10 -24,26l11 0c1,-9 6,-14 13,-14 8,0 12,7 12,18l0 7 -12 0c-16,0 -26,9 -26,25 0,16 9,26 23,26 8,0 13,-4 16,-10l1 8 9 0 0 -57c0,-18 -8,-29 -23,-29l0 0zm12 62c0,9 -5,15 -13,15 -8,0 -14,-5 -14,-14 0,-10 5,-15 15,-15l12 0 0 14zm27 10l-3 35 7 0 7 -35 -11 0zm50 14l49 0 0 -12 -38 0c0,-28 37,-44 37,-75 0,-14 -9,-26 -24,-26 -14,0 -23,11 -23,29l10 0c1,-11 5,-17 13,-17 8,0 13,7 13,15 0,25 -37,40 -37,77l0 9 0 0zm82 -66l20 -36 0 -9 -43 0 0 11 29 0 -18 35 0 10 8 0c10,0 16,5 16,18l0 7c0,13 -5,19 -14,19 -8,0 -13,-4 -14,-19l-11 0c1,21 11,32 25,32 16,0 25,-11 25,-32l0 -8c0,-16 -8,-28 -23,-28l0 0zm29 -45l0 12 34 0 -26 99 12 0 26 -103 0 -8 -46 0 0 0z"/>
   <path id="1" class="fil1" d="M266 200l-13 34c-2,5 -4,10 -5,15l-1 0c-1,-5 -3,-10 -5,-15l-13 -34 -11 0 0 83 11 0 0 -39c0,-8 -1,-16 -1,-23l0 0c2,7 4,14 7,20l7 21 11 0 8 -21c2,-6 4,-13 6,-20l0 0c0,7 0,15 0,23l0 39 10 0 0 -83 -11 0 0 0zm33 85c4,0 7,-4 7,-9 0,-5 -3,-8 -7,-8 -5,0 -8,3 -8,8 0,5 3,9 8,9zm92 -113l0 57c-5,2 -9,3 -13,3 -12,0 -19,-7 -19,-23l0 -37 -11 0 0 37c0,23 11,35 29,35 4,0 9,-1 14,-3l0 42 11 0 0 -111 -11 0zm67 85c-1,11 -5,15 -15,15 -8,0 -13,-5 -13,-18l0 -7 38 0 0 -19c0,-19 -10,-31 -25,-31 -15,0 -24,12 -24,31l0 26c0,20 9,31 24,31 16,0 25,-10 26,-28l-11 0zm-15 -48c9,0 15,6 15,19l0 8 -28 0 0 -8c0,-13 5,-19 13,-19zm67 -11c-7,0 -14,4 -17,9l-1 -8 -8 0 0 113 10 0 0 -35c4,5 10,8 16,8 14,0 23,-11 23,-32l0 -23c0,-21 -10,-32 -23,-32l0 0zm12 55c0,14 -5,20 -14,20 -9,0 -14,-8 -14,-20l0 -23c0,-14 6,-21 14,-21 8,0 14,6 14,21l0 23zm60 -53l0 34 -24 0 0 -34 -11 0 0 83 11 0 0 -37 24 0 0 37 11 0 0 -83 -11 0zm34 -15c4,0 8,-4 8,-9 0,-5 -4,-8 -8,-8 -4,0 -8,3 -8,8 0,5 4,9 8,9zm-5 98l11 0 0 -83 -11 0 0 83zm63 -44c5,-4 8,-11 8,-17 0,-14 -8,-22 -23,-22l-20 0 0 83 22 0c16,0 25,-9 25,-24 0,-9 -4,-17 -12,-20l0 0zm-25 -28l10 0c8,0 12,4 12,12 0,7 -4,12 -12,12l-10 0 0 -24zm12 61l-12 0 0 -26 12 0c9,0 14,4 14,13 0,8 -5,13 -14,13zm80 29l11 0 0 -29 -9 0 0 -72 -10 0 0 72 -24 0 0 -72 -11 0 0 83 43 0 0 18zm28 -116c4,0 7,-4 7,-9 0,-5 -3,-8 -7,-8 -5,0 -8,3 -8,8 0,5 3,9 8,9zm-6 98l11 0 0 -83 -11 0 0 83zm27 -14l-3 35 7 0 7 -35 -11 0zm89 -30c6,-4 8,-11 8,-17 0,-14 -8,-22 -22,-22l-20 0 0 83 22 0c16,0 24,-9 24,-24 0,-9 -4,-17 -12,-20l0 0zm-24 -28l10 0c8,0 12,4 12,12 0,7 -4,12 -12,12l-10 0 0 -24zm12 61l-12 0 0 -26 12 0c9,0 13,4 13,13 0,8 -4,13 -13,13zm70 -72l-15 56 -16 -56 -12 0 24 74 -4 15c-2,7 -4,12 -10,12l-4 0 0 12 6 0c10,0 15,-8 18,-22l24 -91 -11 0zm11 84c13,0 19,-12 20,-36 1,-10 2,-26 2,-37l19 0 0 72 11 0 0 -83 -40 0c0,15 -1,32 -2,46 -1,15 -2,26 -10,26l0 12 0 0zm74 1c4,0 7,-4 7,-9 0,-5 -3,-8 -7,-8 -5,0 -8,3 -8,8 0,5 3,9 8,9zm99 -113l-45 0 0 111 11 0 0 -99 34 0 0 -12 0 0zm20 113c16,0 25,-11 25,-31l0 -25c0,-20 -9,-32 -25,-32 -15,0 -25,12 -25,32l0 25c0,20 10,31 25,31zm0 -12c-8,0 -14,-6 -14,-19l0 -25c0,-14 6,-19 14,-19 9,0 14,5 14,19l0 25c0,13 -5,19 -14,19zm33 11c13,0 19,-12 21,-36 0,-10 1,-26 2,-37l19 0 0 72 10 0 0 -83 -40 0c0,15 -1,32 -2,46 -1,15 -2,26 -10,26l0 12 0 0zm93 1c15,0 25,-11 25,-31l0 -25c0,-20 -10,-32 -25,-32 -15,0 -25,12 -25,32l0 25c0,20 10,31 25,31zm0 -12c-9,0 -14,-6 -14,-19l0 -25c0,-14 5,-19 14,-19 9,0 14,5 14,19l0 25c0,13 -5,19 -14,19zm75 -34c6,-4 9,-11 9,-17 0,-14 -8,-22 -23,-22l-21 0 0 83 22 0c17,0 25,-9 25,-24 0,-9 -4,-17 -12,-20l0 0zm-24 -28l9 0c8,0 13,4 13,12 0,7 -5,12 -13,12l-9 0 0 -24zm12 61l-12 0 0 -26 12 0c9,0 13,4 13,13 0,8 -4,13 -13,13zm72 -72l0 34 -24 0 0 -34 -11 0 0 83 11 0 0 -37 24 0 0 37 10 0 0 -83 -10 0zm50 -3c-14,0 -23,10 -24,26l11 0c1,-9 6,-14 13,-14 8,0 12,7 12,18l0 7 -12 0c-16,0 -26,9 -26,25 0,16 9,26 23,26 8,0 13,-4 16,-10l1 8 9 0 0 -57c0,-18 -8,-29 -23,-29l0 0zm12 62c0,9 -5,15 -13,15 -8,0 -14,-5 -14,-14 0,-10 5,-15 15,-15l12 0 0 14zm27 10l-3 35 7 0 7 -35 -11 0zm50 14l49 0 0 -12 -38 0c0,-28 37,-44 37,-75 0,-14 -9,-26 -24,-26 -14,0 -23,11 -23,29l10 0c1,-11 5,-17 13,-17 8,0 13,7 13,15 0,25 -37,40 -37,77l0 9 0 0zm82 -66l20 -36 0 -9 -43 0 0 11 29 0 -18 35 0 10 8 0c10,0 16,5 16,18l0 7c0,13 -5,19 -14,19 -8,0 -13,-4 -14,-19l-11 0c1,21 11,32 25,32 16,0 25,-11 25,-32l0 -8c0,-16 -8,-28 -23,-28l0 0zm29 -45l0 12 34 0 -26 99 12 0 26 -103 0 -8 -46 0 0 0z"/>
  </g>
 </g>
</svg>
