<?xml version="1.0" encoding="UTF-8"?>
<!DOCTYPE svg PUBLIC "-//W3C//DTD SVG 1.1//EN" "http://www.w3.org/Graphics/SVG/1.1/DTD/svg11.dtd">
<!-- Creator: CorelDRAW X7 -->
<svg xmlns="http://www.w3.org/2000/svg" xml:space="preserve" width="38.8231mm" height="6.0576mm" version="1.1" style="shape-rendering:geometricPrecision; text-rendering:geometricPrecision; image-rendering:optimizeQuality; fill-rule:evenodd; clip-rule:evenodd"
viewBox="0 0 22255 3472"
 xmlns:xlink="http://www.w3.org/1999/xlink">
 <defs>
  <style type="text/css">
   <![CDATA[
    .fil0 {fill:#FEFEFE;fill-rule:nonzero}
   ]]>
  </style>
 </defs>
 <g id="Слой_x0020_1">
  <metadata id="CorelCorpID_0Corel-Layer"/>
  <g id="_784319904">
   <path class="fil0" d="M367 614c-17,50 -33,91 -47,123 -15,31 -29,56 -45,73 -15,18 -31,30 -49,37 -18,6 -38,9 -62,9 -8,0 -15,0 -24,-2 -8,-1 -16,-3 -23,-5 -7,-2 -13,-5 -19,-8 -6,-3 -10,-6 -12,-8 -3,-2 -5,-5 -6,-8 -1,-3 -2,-6 -3,-11 -1,-4 -2,-9 -2,-16 0,-6 -1,-14 -1,-23 0,-16 2,-28 4,-35 3,-8 7,-11 13,-11 3,0 6,1 10,3 4,3 8,6 14,10 5,3 12,6 19,9 8,2 17,3 28,3 9,0 17,-1 25,-3 8,-2 15,-8 22,-15 7,-8 15,-19 22,-33 8,-14 16,-33 25,-57l-250 -596c-3,-9 -5,-16 -6,-21 0,-6 1,-10 4,-13 3,-3 8,-5 15,-7 7,-1 16,-1 27,-1 11,0 19,0 25,1 7,1 12,2 16,4 4,2 7,5 9,8 3,3 5,8 7,13l125 304c14,34 27,67 40,99 12,31 25,63 37,94l1 0c10,-33 20,-65 30,-98 11,-32 22,-68 36,-106l98 -298c1,-4 2,-7 4,-10 2,-3 5,-5 9,-6 4,-2 9,-4 16,-4 6,-1 15,-1 25,-1 11,0 20,1 26,2 7,1 12,3 14,6 3,2 5,6 5,10 0,4 -1,9 -4,15l-198 573zm745 -555c0,9 -1,16 -2,22 0,6 -1,10 -3,14 -2,4 -4,7 -6,8 -2,2 -5,3 -8,3l-197 0 0 724c0,4 -1,7 -2,9 -2,3 -4,5 -8,6 -4,2 -8,3 -14,4 -6,2 -14,2 -23,2 -9,0 -16,0 -22,-2 -6,-1 -11,-2 -15,-4 -4,-1 -6,-3 -7,-6 -2,-2 -3,-5 -3,-9l0 -724 -197 0c-3,0 -6,-1 -8,-3 -2,-1 -4,-4 -6,-8 -1,-4 -2,-8 -3,-14 -1,-6 -2,-13 -2,-22 0,-8 1,-15 2,-21 1,-6 2,-11 3,-15 2,-4 4,-7 6,-8 2,-2 5,-3 8,-3l488 0c3,0 6,1 8,3 2,1 4,4 6,8 2,4 3,9 3,15 1,6 2,13 2,21zm493 742c0,8 -1,15 -1,20 -1,6 -2,11 -4,15 -2,4 -4,7 -6,8 -3,2 -5,3 -8,3l-338 0c-8,0 -16,-3 -24,-10 -7,-7 -11,-18 -11,-35l0 -745c0,-17 4,-28 11,-35 8,-7 16,-10 24,-10l334 0c3,0 5,1 8,3 2,1 4,4 6,8 1,4 2,9 3,14 1,6 1,13 1,22 0,8 0,15 -1,21 -1,5 -2,10 -3,14 -2,3 -4,6 -6,8 -3,1 -5,2 -8,2l-275 0 0 262 236 0c3,0 5,1 8,3 2,2 4,5 6,8 1,4 3,8 3,14 1,6 1,13 1,22 0,7 0,14 -1,20 0,5 -2,10 -3,13 -2,4 -4,6 -6,8 -3,1 -5,2 -8,2l-236 0 0 298 279 0c3,0 5,1 8,3 2,2 4,5 6,8 2,4 3,9 4,14 0,6 1,13 1,22zm657 30c0,3 -1,6 -3,9 -1,2 -4,4 -7,6 -4,1 -9,3 -15,4 -6,1 -13,1 -22,1 -9,0 -16,0 -22,-1 -7,-1 -11,-3 -15,-4 -3,-2 -6,-4 -7,-6 -2,-3 -3,-6 -3,-9l0 -723 -318 0 0 723c0,3 -1,6 -2,9 -2,2 -5,4 -8,6 -4,1 -8,3 -14,4 -6,1 -14,1 -23,1 -9,0 -16,0 -22,-1 -6,-1 -11,-3 -15,-4 -3,-2 -6,-4 -7,-6 -2,-3 -3,-6 -3,-9l0 -774c0,-15 4,-26 10,-34 6,-7 14,-11 24,-11l439 0c10,0 18,4 24,11 6,8 9,19 9,34l0 774zm678 0c0,3 -1,6 -3,9 -1,2 -3,4 -7,6 -4,1 -8,3 -14,4 -7,1 -14,1 -23,1 -9,0 -17,0 -23,-1 -6,-1 -10,-3 -14,-4 -4,-2 -6,-4 -8,-6 -1,-3 -2,-6 -2,-9l0 -724 -197 0c-10,100 -19,187 -29,263 -10,76 -20,141 -31,197 -11,56 -23,102 -36,140 -13,36 -28,66 -45,89 -17,23 -36,38 -57,48 -21,9 -45,14 -73,14 -3,0 -7,-1 -9,-3 -3,-2 -6,-4 -8,-8 -2,-4 -3,-9 -4,-15 -1,-6 -1,-14 -1,-22 0,-11 0,-20 1,-27 1,-7 2,-12 3,-17 2,-4 4,-7 6,-9 3,-2 5,-3 8,-3 13,0 26,-3 38,-9 12,-7 23,-19 34,-37 11,-18 21,-42 31,-74 10,-33 20,-74 29,-126 9,-51 19,-113 28,-186 9,-74 18,-160 26,-260 2,-18 6,-31 11,-39 6,-7 14,-11 24,-11l312 0c10,0 18,4 24,11 6,8 9,19 9,34l0 774zm579 -30c0,8 0,15 -1,20 -1,6 -2,11 -4,15 -2,4 -4,7 -6,8 -2,2 -5,3 -8,3l-338 0c-8,0 -16,-3 -23,-10 -8,-7 -12,-18 -12,-35l0 -745c0,-17 4,-28 12,-35 7,-7 15,-10 23,-10l334 0c3,0 6,1 8,3 2,1 4,4 6,8 1,4 2,9 3,14 1,6 2,13 2,22 0,8 -1,15 -2,21 -1,5 -2,10 -3,14 -2,3 -4,6 -6,8 -2,1 -5,2 -8,2l-275 0 0 262 236 0c3,0 6,1 8,3 2,2 4,5 6,8 2,4 3,8 4,14 0,6 1,13 1,22 0,7 -1,14 -1,20 -1,5 -2,10 -4,13 -2,4 -4,6 -6,8 -2,1 -5,2 -8,2l-236 0 0 298 279 0c3,0 6,1 8,3 2,2 4,5 6,8 2,4 3,9 4,14 1,6 1,13 1,22zm658 29c0,4 -1,7 -2,9 -2,3 -4,5 -8,6 -4,2 -8,3 -14,4 -6,2 -14,2 -22,2 -10,0 -18,0 -23,-2 -6,-1 -11,-2 -15,-4 -3,-1 -6,-3 -7,-6 -2,-2 -2,-5 -2,-9l0 -370 -320 0 0 370c0,4 -1,7 -2,9 -1,3 -4,5 -8,6 -3,2 -8,3 -14,4 -6,2 -13,2 -22,2 -9,0 -17,0 -23,-2 -6,-1 -11,-2 -14,-4 -4,-1 -7,-3 -8,-6 -1,-2 -2,-5 -2,-9l0 -801c0,-4 1,-7 2,-9 1,-3 4,-5 8,-7 3,-1 8,-2 14,-4 6,-1 14,-1 23,-1 9,0 16,0 22,1 6,2 11,3 14,4 4,2 7,4 8,7 1,2 2,5 2,9l0 334 320 0 0 -334c0,-4 0,-7 2,-9 1,-3 4,-5 7,-7 4,-1 9,-2 15,-4 5,-1 13,-1 23,-1 8,0 16,0 22,1 6,2 10,3 14,4 4,2 6,4 8,7 1,2 2,5 2,9l0 801zm693 0c0,4 -1,7 -2,9 -2,3 -4,5 -8,6 -3,2 -8,3 -14,4 -6,2 -14,2 -22,2 -10,0 -18,0 -23,-2 -6,-1 -11,-2 -15,-4 -3,-1 -6,-3 -7,-6 -2,-2 -2,-5 -2,-9l0 -370 -320 0 0 370c0,4 0,7 -2,9 -1,3 -4,5 -8,6 -3,2 -8,3 -14,4 -6,2 -13,2 -22,2 -9,0 -17,0 -23,-2 -6,-1 -11,-2 -14,-4 -4,-1 -6,-3 -8,-6 -1,-2 -2,-5 -2,-9l0 -801c0,-4 1,-7 2,-9 2,-3 4,-5 8,-7 3,-1 8,-2 14,-4 6,-1 14,-1 23,-1 9,0 16,0 22,1 6,2 11,3 14,4 4,2 7,4 8,7 2,2 2,5 2,9l0 334 320 0 0 -334c0,-4 0,-7 2,-9 1,-3 4,-5 7,-7 4,-1 9,-2 15,-4 5,-1 13,-1 23,-1 8,0 16,0 22,1 6,2 11,3 14,4 4,2 6,4 8,7 1,2 2,5 2,9l0 801zm619 1c0,3 -1,6 -3,9 -1,2 -3,4 -7,6 -4,1 -9,3 -14,4 -7,1 -14,1 -23,1 -9,0 -17,0 -23,-1 -6,-1 -10,-3 -14,-4 -3,-2 -6,-4 -7,-6 -2,-3 -3,-6 -3,-9l0 -349 -70 0c-29,0 -50,4 -65,11 -15,6 -28,17 -39,30 -11,13 -21,29 -29,47 -7,19 -15,39 -22,62l-61 193c-2,5 -3,9 -5,12 -2,4 -5,7 -9,8 -4,2 -9,4 -15,5 -6,1 -14,1 -23,1 -11,0 -19,0 -25,-2 -6,-1 -11,-2 -15,-4 -3,-1 -5,-4 -6,-6 -1,-2 -2,-5 -2,-9 0,-4 1,-9 2,-15 1,-6 4,-15 8,-28l57 -178c7,-21 15,-40 22,-58 8,-17 16,-32 25,-45 8,-13 18,-25 28,-34 10,-9 21,-16 34,-22 -22,-6 -42,-15 -59,-27 -18,-11 -32,-26 -44,-42 -12,-17 -21,-37 -28,-59 -6,-22 -9,-46 -9,-73 0,-34 5,-66 14,-95 10,-29 25,-54 45,-75 20,-21 45,-38 75,-49 31,-12 74,-18 129,-18l146 0c8,0 16,3 24,10 7,7 11,18 11,35l0 774zm-94 -728l-89 0c-37,0 -65,4 -84,11 -19,7 -34,17 -46,29 -12,13 -20,28 -25,46 -6,17 -8,36 -8,56 0,20 2,39 8,57 6,18 14,33 26,46 12,14 28,24 47,32 19,7 45,11 79,11l92 0 0 -288zm887 329c0,28 -4,55 -13,80 -9,25 -21,47 -37,65 -16,19 -34,33 -55,44 -22,11 -44,16 -68,16 -24,0 -46,-5 -67,-15 -21,-11 -40,-25 -55,-44 -16,-18 -28,-40 -37,-66 -9,-25 -13,-51 -13,-79 0,-29 5,-56 14,-81 8,-25 21,-46 36,-65 16,-19 34,-33 55,-44 22,-10 44,-16 68,-16 23,0 46,6 67,16 21,11 39,25 55,44 16,18 28,40 37,65 9,25 13,52 13,80zm827 -372c0,8 -1,15 -1,21 -1,6 -2,11 -4,15 -2,4 -3,7 -6,8 -2,2 -5,3 -8,3l-265 0 0 724c0,3 -1,6 -2,9 -2,2 -4,4 -8,6 -3,1 -8,3 -14,4 -6,1 -14,1 -23,1 -8,0 -16,0 -22,-1 -6,-1 -11,-3 -15,-4 -3,-2 -6,-4 -7,-6 -2,-3 -2,-6 -2,-9l0 -774c0,-15 3,-26 10,-34 6,-7 15,-11 24,-11l324 0c6,0 11,4 14,12 3,7 5,19 5,36zm194 770c0,4 -1,7 -2,9 -2,3 -4,5 -8,6 -3,2 -8,3 -14,4 -6,2 -14,2 -23,2 -8,0 -16,0 -22,-2 -6,-1 -11,-2 -15,-4 -3,-1 -6,-3 -7,-6 -2,-2 -2,-5 -2,-9l0 -801c0,-4 0,-7 2,-9 2,-3 4,-5 8,-7 4,-1 9,-2 15,-4 6,-1 13,-1 21,-1 9,0 17,0 23,1 6,2 11,3 14,4 4,2 6,4 8,7 1,2 2,5 2,9l0 801zm785 220c0,3 0,6 -1,8 -1,2 -3,4 -6,5 -3,1 -8,2 -13,3 -5,1 -12,2 -20,2 -8,0 -14,-1 -19,-2 -5,-1 -9,-2 -12,-3 -3,-1 -5,-3 -7,-5 -1,-2 -2,-5 -2,-8l0 -203 -529 0 0 203c0,3 -1,6 -2,8 -1,2 -4,4 -7,5 -3,1 -7,2 -12,3 -5,1 -11,2 -19,2 -8,0 -15,-1 -20,-2 -5,-1 -9,-2 -12,-3 -3,-1 -5,-3 -6,-5 -2,-2 -2,-5 -2,-8l0 -265c-1,-11 0,-19 4,-24 4,-5 9,-8 17,-8l41 0c10,-15 19,-31 28,-47 9,-16 17,-35 25,-57 8,-22 16,-49 23,-81 8,-31 15,-70 23,-116 7,-46 15,-102 23,-166 7,-64 15,-140 23,-228 3,-16 6,-27 12,-35 5,-7 12,-11 22,-11l325 0c9,0 17,4 23,11 6,8 9,19 9,34l0 696 70 0c8,0 13,3 17,8 3,6 4,14 4,25l0 264zm-184 -943l-209 0c-7,80 -15,149 -22,209 -8,59 -15,111 -22,154 -7,44 -15,81 -22,112 -7,30 -14,56 -22,77 -7,21 -15,40 -23,54 -8,15 -16,28 -24,40l344 0 0 -646zm734 150c0,41 -6,79 -17,113 -12,33 -28,62 -50,86 -22,23 -48,42 -79,54 -32,13 -69,20 -112,20l-80 0 0 300c0,4 -1,7 -3,9 -1,3 -4,5 -7,6 -4,2 -8,3 -14,4 -6,2 -14,2 -23,2 -9,0 -16,0 -23,-2 -5,-1 -10,-2 -14,-4 -4,-1 -6,-3 -7,-6 -2,-2 -3,-5 -3,-9l0 -770c0,-18 4,-30 12,-37 8,-7 16,-11 25,-11l151 0c15,0 29,1 43,2 14,2 31,5 50,10 19,5 38,14 58,28 20,13 36,30 50,50 14,20 24,42 32,68 7,26 11,55 11,87zm-98 8c0,-34 -5,-62 -16,-85 -11,-23 -24,-40 -40,-51 -15,-11 -32,-18 -48,-21 -17,-3 -34,-5 -50,-5l-86 0 0 336 84 0c28,0 52,-5 71,-13 18,-9 34,-21 47,-36 12,-15 22,-34 28,-55 7,-21 10,-45 10,-70zm830 155c0,67 -7,128 -20,182 -14,55 -34,101 -60,139 -27,38 -60,67 -101,87 -40,21 -87,31 -140,31 -53,0 -99,-9 -137,-28 -39,-19 -71,-46 -96,-82 -25,-35 -44,-80 -56,-133 -13,-52 -19,-113 -19,-182 0,-66 7,-126 20,-179 14,-54 34,-100 61,-137 26,-38 60,-67 100,-87 40,-21 87,-31 141,-31 52,0 97,9 135,28 38,18 70,45 96,81 25,35 45,79 57,131 12,52 19,112 19,180zm-99 7c0,-47 -4,-91 -11,-131 -7,-41 -19,-76 -35,-106 -17,-30 -38,-53 -66,-70 -28,-17 -61,-25 -102,-25 -40,0 -74,9 -102,27 -27,18 -50,42 -67,72 -17,30 -29,65 -37,106 -7,40 -11,82 -11,126 0,49 4,94 11,135 6,42 18,77 34,107 16,30 38,53 65,70 28,16 62,24 103,24 41,0 75,-9 103,-27 28,-18 51,-42 68,-73 16,-30 29,-66 36,-106 7,-41 11,-83 11,-129zm340 403c0,4 0,7 -2,9 -1,3 -4,5 -7,6 -4,2 -9,3 -15,4 -6,2 -13,2 -22,2 -9,0 -17,0 -23,-2 -6,-1 -11,-2 -14,-4 -4,-1 -6,-3 -8,-6 -1,-2 -2,-5 -2,-9l0 -801c0,-4 1,-7 2,-9 2,-3 5,-5 8,-7 4,-1 9,-2 15,-4 6,-1 13,-1 22,-1 9,0 16,0 22,1 6,2 11,3 15,4 3,2 6,4 7,7 2,2 2,5 2,9l0 801z"/>
   <path class="fil0" d="M10183 613c0,37 -6,70 -17,101 -11,30 -28,56 -51,78 -22,21 -49,38 -82,50 -32,11 -70,17 -112,17 -24,0 -45,-2 -64,-6 -19,-5 -35,-10 -49,-16 -13,-6 -24,-12 -32,-17 -8,-5 -13,-9 -16,-12 -3,-4 -6,-7 -7,-10 -2,-3 -3,-8 -4,-12 0,-5 -1,-11 -2,-18 -1,-8 -1,-16 -1,-27 0,-13 1,-22 3,-27 2,-5 6,-7 10,-7 4,0 10,3 18,9 8,5 18,12 31,19 12,8 28,15 46,20 18,6 40,9 66,9 23,0 45,-4 65,-11 20,-7 36,-17 51,-30 13,-13 24,-28 32,-46 8,-19 12,-38 12,-60 0,-24 -4,-45 -11,-65 -7,-19 -18,-36 -33,-50 -14,-13 -32,-24 -53,-32 -21,-8 -46,-11 -74,-11l-82 0c-5,0 -8,-1 -11,-3 -2,-1 -4,-4 -6,-7 -2,-3 -3,-8 -4,-14 -1,-6 -1,-13 -1,-21 0,-9 0,-15 1,-21 1,-6 2,-10 4,-14 2,-3 4,-6 7,-8 2,-1 6,-2 9,-2l78 0c23,0 45,-4 65,-10 20,-6 37,-16 50,-28 14,-13 25,-28 33,-47 7,-18 11,-39 11,-63 0,-19 -3,-36 -8,-52 -5,-16 -13,-30 -24,-41 -10,-11 -23,-19 -39,-25 -16,-6 -34,-9 -56,-9 -23,0 -43,3 -61,9 -18,5 -34,12 -47,19 -13,7 -24,14 -33,20 -9,6 -16,9 -20,9 -2,0 -4,-1 -6,-2 -1,-2 -3,-4 -4,-7 -1,-3 -1,-8 -2,-13 0,-6 0,-13 0,-21 0,-5 0,-11 0,-16 1,-6 1,-11 2,-15 1,-4 2,-8 4,-12 1,-3 3,-7 6,-10 3,-4 10,-9 21,-15 11,-7 24,-13 40,-19 16,-6 34,-11 54,-15 20,-4 41,-6 65,-6 34,0 64,5 90,15 26,10 48,24 65,42 18,18 31,40 39,65 9,25 13,54 13,85 0,28 -4,53 -11,76 -7,22 -16,42 -28,59 -13,16 -27,30 -43,40 -16,11 -33,18 -51,22l0 2c21,3 42,10 61,22 18,11 35,26 48,45 14,18 25,39 33,63 8,24 12,49 12,77zm731 -193c0,67 -7,128 -20,182 -14,55 -34,101 -60,139 -27,38 -60,67 -101,87 -40,21 -87,31 -140,31 -53,0 -99,-9 -137,-28 -39,-19 -71,-46 -96,-82 -25,-35 -44,-80 -56,-133 -13,-52 -19,-113 -19,-182 0,-66 7,-126 20,-179 14,-54 34,-100 61,-137 26,-38 60,-67 100,-87 40,-21 87,-31 141,-31 52,0 97,9 135,28 38,18 70,45 96,81 25,35 45,79 57,131 12,52 19,112 19,180zm-99 7c0,-47 -4,-91 -11,-131 -7,-41 -19,-76 -35,-106 -17,-30 -39,-53 -66,-70 -28,-17 -61,-25 -102,-25 -41,0 -74,9 -102,27 -27,18 -50,42 -67,72 -17,30 -29,65 -37,106 -7,40 -11,82 -11,126 0,49 4,94 11,135 6,42 18,77 34,107 16,30 38,53 65,70 28,16 62,24 103,24 41,0 75,-9 103,-27 28,-18 51,-42 68,-73 16,-30 29,-66 36,-106 7,-41 11,-83 11,-129zm711 404c0,3 -1,6 -2,9 -2,2 -4,4 -8,6 -3,1 -8,3 -14,4 -6,1 -14,1 -23,1 -9,0 -16,0 -22,-1 -6,-1 -11,-3 -15,-4 -3,-2 -6,-4 -7,-6 -2,-3 -2,-6 -2,-9l0 -724 -197 0c-10,100 -20,187 -30,263 -10,76 -20,141 -31,197 -11,56 -23,102 -36,140 -13,36 -28,66 -44,89 -17,23 -36,38 -58,48 -21,9 -45,14 -72,14 -4,0 -7,-1 -10,-3 -3,-2 -5,-4 -7,-8 -2,-4 -4,-9 -5,-15 -1,-6 -1,-14 -1,-22 0,-11 0,-20 1,-27 1,-7 2,-12 4,-17 1,-4 3,-7 5,-9 3,-2 5,-3 8,-3 14,0 26,-3 38,-9 12,-7 23,-19 34,-37 11,-18 21,-42 31,-74 10,-33 20,-74 29,-126 10,-51 19,-113 28,-186 9,-74 18,-160 27,-260 1,-18 5,-31 11,-39 5,-7 13,-11 23,-11l312 0c11,0 19,4 24,11 6,8 9,19 9,34l0 774zm620 0c0,3 -1,6 -3,9 -1,2 -4,4 -7,6 -4,1 -9,3 -15,4 -6,1 -13,1 -22,1 -9,0 -17,0 -23,-1 -6,-1 -10,-3 -14,-4 -3,-2 -6,-4 -8,-6 -1,-3 -2,-6 -2,-9l0 -349 -70 0c-29,0 -50,4 -65,11 -15,6 -29,17 -39,30 -12,13 -21,29 -29,47 -8,19 -15,39 -22,62l-61 193c-2,5 -4,9 -6,12 -2,4 -4,7 -9,8 -3,2 -8,4 -14,5 -6,1 -14,1 -23,1 -11,0 -19,0 -25,-2 -7,-1 -11,-2 -15,-4 -3,-1 -5,-4 -6,-6 -1,-2 -2,-5 -2,-9 0,-4 1,-9 2,-15 1,-6 3,-15 8,-28l57 -178c7,-21 14,-40 22,-58 8,-17 16,-32 24,-45 9,-13 19,-25 29,-34 10,-9 21,-16 33,-22 -21,-6 -41,-15 -58,-27 -18,-11 -32,-26 -44,-42 -12,-17 -21,-37 -28,-59 -6,-22 -9,-46 -9,-73 0,-34 4,-66 14,-95 10,-29 25,-54 45,-75 20,-21 45,-38 75,-49 30,-12 73,-18 129,-18l146 0c8,0 16,3 24,10 7,7 11,18 11,35l0 774zm-94 -728l-89 0c-37,0 -65,4 -84,11 -19,7 -34,17 -46,29 -12,13 -20,28 -26,46 -5,17 -8,36 -8,56 0,20 3,39 9,57 6,18 14,33 26,46 12,14 28,24 47,32 19,7 45,11 79,11l92 0 0 -288zm872 947c0,3 0,6 -1,8 -2,2 -4,4 -7,5 -3,1 -7,2 -12,3 -5,1 -11,2 -20,2 -7,0 -13,-1 -19,-2 -4,-1 -9,-2 -12,-3 -3,-1 -5,-3 -7,-5 -1,-2 -2,-5 -2,-8l0 -203 -479 0c-11,0 -18,-4 -25,-11 -6,-8 -9,-19 -9,-34l0 -774c0,-3 1,-6 3,-8 1,-3 4,-5 7,-7 4,-2 9,-3 15,-4 6,-1 13,-1 22,-1 9,0 17,0 23,1 6,1 11,2 14,4 4,2 6,4 8,7 1,2 2,5 2,8l0 724 315 0 0 -724c0,-3 1,-6 2,-8 1,-3 4,-5 8,-7 4,-2 8,-3 14,-4 7,-1 14,-1 23,-1 9,0 16,0 22,1 6,1 11,2 14,4 4,2 7,4 8,7 2,2 2,5 2,8l0 724 71 0c8,0 13,2 16,7 3,5 4,13 4,24l0 267zm212 -220c0,4 -1,7 -3,9 -1,3 -4,5 -7,6 -4,2 -9,3 -15,4 -6,2 -13,2 -22,2 -9,0 -16,0 -22,-2 -7,-1 -12,-2 -15,-4 -4,-1 -6,-3 -8,-6 -1,-2 -2,-5 -2,-9l0 -801c0,-4 1,-7 2,-9 2,-3 5,-5 9,-7 4,-1 8,-2 14,-4 6,-1 13,-1 22,-1 9,0 16,0 22,1 6,2 11,3 15,4 3,2 6,4 7,7 2,2 3,5 3,9l0 801zm618 1c0,3 -1,6 -2,9 -2,2 -4,4 -8,6 -3,1 -8,3 -14,4 -6,1 -14,1 -23,1 -9,0 -16,0 -22,-1 -6,-1 -11,-3 -14,-4 -4,-2 -6,-4 -8,-6 -2,-3 -2,-6 -2,-9l0 -349 -71 0c-28,0 -50,4 -65,11 -15,6 -28,17 -39,30 -11,13 -20,29 -28,47 -8,19 -16,39 -23,62l-60 193c-2,5 -4,9 -6,12 -2,4 -5,7 -9,8 -4,2 -9,4 -15,5 -6,1 -13,1 -23,1 -10,0 -19,0 -25,-2 -6,-1 -11,-2 -14,-4 -3,-1 -6,-4 -7,-6 -1,-2 -1,-5 -1,-9 0,-4 0,-9 1,-15 1,-6 4,-15 8,-28l58 -178c7,-21 14,-40 22,-58 7,-17 15,-32 24,-45 9,-13 18,-25 28,-34 10,-9 22,-16 34,-22 -22,-6 -41,-15 -59,-27 -17,-11 -32,-26 -44,-42 -12,-17 -21,-37 -27,-59 -7,-22 -10,-46 -10,-73 0,-34 5,-66 15,-95 10,-29 24,-54 45,-75 19,-21 45,-38 75,-49 30,-12 73,-18 128,-18l146 0c9,0 17,3 24,10 7,7 11,18 11,35l0 774zm-93 -728l-90 0c-37,0 -65,4 -83,11 -19,7 -35,17 -46,29 -12,13 -21,28 -26,46 -5,17 -8,36 -8,56 0,20 3,39 9,57 5,18 14,33 26,46 12,14 27,24 46,32 20,7 46,11 80,11l92 0 0 -288zm887 329c0,28 -5,55 -14,80 -9,25 -21,47 -37,65 -16,19 -34,33 -55,44 -21,11 -44,16 -67,16 -24,0 -46,-5 -68,-15 -21,-11 -39,-25 -55,-44 -15,-18 -28,-40 -36,-66 -9,-25 -13,-51 -13,-79 0,-29 4,-56 13,-81 9,-25 21,-46 37,-65 15,-19 34,-33 55,-44 21,-10 44,-16 67,-16 24,0 46,6 67,16 22,11 40,25 55,44 16,18 28,40 37,65 9,25 14,52 14,80zm834 181c0,37 -6,70 -17,101 -12,30 -28,56 -51,78 -22,21 -49,38 -82,50 -33,11 -70,17 -112,17 -24,0 -45,-2 -64,-6 -19,-5 -35,-10 -49,-16 -14,-6 -24,-12 -32,-17 -8,-5 -13,-9 -16,-12 -4,-4 -6,-7 -7,-10 -2,-3 -3,-8 -4,-12 -1,-5 -1,-11 -2,-18 -1,-8 -1,-16 -1,-27 0,-13 1,-22 3,-27 2,-5 5,-7 10,-7 4,0 10,3 18,9 8,5 18,12 31,19 12,8 28,15 46,20 18,6 40,9 65,9 24,0 46,-4 66,-11 20,-7 36,-17 50,-30 14,-13 25,-28 33,-46 8,-19 12,-38 12,-60 0,-24 -4,-45 -11,-65 -8,-19 -18,-36 -33,-50 -14,-13 -32,-24 -53,-32 -22,-8 -46,-11 -74,-11l-83 0c-4,0 -7,-1 -10,-3 -2,-1 -5,-4 -6,-7 -2,-3 -3,-8 -4,-14 -1,-6 -1,-13 -1,-21 0,-9 0,-15 1,-21 1,-6 2,-10 4,-14 1,-3 4,-6 6,-8 3,-1 6,-2 10,-2l77 0c24,0 46,-4 66,-10 19,-6 36,-16 50,-28 14,-13 25,-28 32,-47 8,-18 12,-39 12,-63 0,-19 -3,-36 -8,-52 -5,-16 -13,-30 -24,-41 -10,-11 -24,-19 -39,-25 -16,-6 -35,-9 -56,-9 -23,0 -43,3 -62,9 -18,5 -33,12 -46,19 -13,7 -24,14 -33,20 -9,6 -16,9 -20,9 -3,0 -5,-1 -6,-2 -2,-2 -3,-4 -4,-7 -1,-3 -2,-8 -2,-13 0,-6 -1,-13 -1,-21 0,-5 1,-11 1,-16 0,-6 1,-11 2,-15 1,-4 2,-8 3,-12 2,-3 4,-7 7,-10 3,-4 10,-9 20,-15 11,-7 25,-13 41,-19 15,-6 33,-11 53,-15 21,-4 42,-6 65,-6 35,0 65,5 91,15 26,10 47,24 65,42 17,18 31,40 39,65 9,25 13,54 13,85 0,28 -4,53 -11,76 -7,22 -16,42 -29,59 -12,16 -26,30 -42,40 -16,11 -34,18 -52,22l0 2c22,3 42,10 61,22 19,11 36,26 49,45 14,18 25,39 33,63 8,24 12,49 12,77zm606 -5c0,26 -3,50 -8,72 -6,22 -14,42 -24,60 -10,18 -23,33 -37,46 -14,14 -30,25 -48,34 -18,9 -38,16 -58,20 -21,5 -44,7 -70,7l-184 0c-8,0 -16,-3 -24,-10 -7,-7 -11,-18 -11,-35l0 -745c0,-17 4,-28 11,-35 8,-7 16,-10 24,-10l160 0c42,0 76,5 103,14 27,9 49,23 67,41 18,18 32,41 41,67 9,26 13,56 13,89 0,20 -2,39 -6,57 -4,18 -10,34 -17,50 -8,15 -18,29 -30,41 -12,12 -25,22 -40,29 19,5 37,13 54,24 16,11 31,26 43,44 13,17 23,38 30,61 7,24 11,50 11,79zm-140 -374c0,-21 -3,-39 -7,-55 -5,-17 -12,-31 -23,-42 -10,-11 -23,-20 -39,-26 -17,-6 -38,-9 -65,-9l-97 0 0 271 107 0c24,0 44,-4 59,-12 14,-7 27,-17 37,-30 9,-13 16,-28 21,-45 4,-17 7,-34 7,-52zm42 380c0,-25 -3,-47 -10,-66 -7,-19 -17,-34 -29,-47 -13,-13 -29,-23 -49,-30 -19,-7 -44,-10 -73,-10l-112 0 0 295 136 0c21,0 40,-3 56,-9 16,-6 30,-15 42,-27 12,-12 22,-27 29,-44 6,-18 10,-38 10,-62zm512 0c-17,50 -33,91 -48,123 -14,31 -29,56 -44,73 -15,18 -32,30 -50,37 -18,6 -38,9 -61,9 -8,0 -16,0 -24,-2 -8,-1 -16,-3 -23,-5 -8,-2 -14,-5 -20,-8 -5,-3 -9,-6 -12,-8 -2,-2 -4,-5 -5,-8 -2,-3 -3,-6 -4,-11 -1,-4 -1,-9 -2,-16 0,-6 0,-14 0,-23 0,-16 1,-28 4,-35 3,-8 7,-11 12,-11 3,0 6,1 10,3 4,3 9,6 14,10 5,3 12,6 20,9 8,2 17,3 27,3 9,0 18,-1 26,-3 7,-2 15,-8 22,-15 7,-8 14,-19 22,-33 7,-14 16,-33 25,-57l-251 -596c-3,-9 -5,-16 -5,-21 -1,-6 0,-10 4,-13 2,-3 7,-5 14,-7 7,-1 16,-1 28,-1 10,0 18,0 25,1 6,1 11,2 15,4 4,2 8,5 10,8 2,3 4,8 6,13l126 304c14,34 27,67 40,99 12,31 24,63 36,94l2 0c10,-33 20,-65 30,-98 10,-32 22,-68 35,-106l98 -298c1,-4 3,-7 5,-10 2,-3 5,-5 8,-6 4,-2 10,-4 16,-4 7,-1 15,-1 26,-1 11,0 19,1 26,2 6,1 11,3 14,6 3,2 4,6 4,10 0,4 -1,9 -3,15l-198 573zm771 216c0,4 -1,7 -3,9 -1,3 -3,5 -7,7 -3,1 -8,3 -14,4 -6,1 -14,1 -23,1 -10,0 -19,0 -25,-2 -6,-1 -11,-2 -15,-4 -4,-3 -7,-5 -9,-9 -2,-3 -3,-7 -4,-11l-65 -204c-9,-28 -18,-51 -29,-71 -10,-19 -22,-35 -36,-48 -14,-12 -29,-22 -46,-28 -18,-6 -37,-9 -59,-9l-39 0 0 365c0,4 -1,7 -2,9 -2,3 -4,5 -8,6 -3,2 -8,3 -14,4 -6,2 -14,2 -23,2 -9,0 -16,0 -22,-2 -6,-1 -11,-2 -15,-4 -3,-1 -6,-3 -7,-6 -2,-2 -3,-5 -3,-9l0 -802c0,-3 1,-6 3,-8 1,-3 4,-5 7,-7 4,-1 9,-2 15,-4 6,-1 13,-1 22,-1 9,0 17,0 23,1 6,2 11,3 14,4 4,2 6,4 8,7 1,2 2,5 2,8l0 342 39 0c22,0 41,-3 57,-9 16,-7 31,-16 43,-28 13,-13 24,-29 33,-48 10,-19 19,-42 26,-68l53 -183c1,-4 3,-8 5,-11 1,-4 4,-6 8,-9 3,-2 8,-3 15,-5 6,-1 14,-1 24,-1 10,0 17,0 23,1 6,1 10,2 14,4 3,2 5,4 6,7 2,2 2,5 2,9 0,4 0,10 -2,15 -1,6 -3,13 -5,21l-56 174c-8,26 -16,48 -25,68 -8,18 -17,35 -27,48 -11,14 -22,25 -34,34 -11,9 -25,16 -40,21l0 1c17,7 32,16 46,26 13,9 25,21 36,35 11,15 22,32 31,52 10,20 19,44 28,71l66 199c4,11 6,19 7,24 0,4 1,8 1,12z"/>
   <path class="fil0" d="M17871 420c0,67 -7,128 -21,182 -13,55 -33,101 -60,139 -26,38 -60,67 -100,87 -40,21 -87,31 -141,31 -52,0 -98,-9 -137,-28 -38,-19 -70,-46 -95,-82 -26,-35 -44,-80 -57,-133 -12,-52 -18,-113 -18,-182 0,-66 7,-126 20,-179 13,-54 34,-100 60,-137 27,-38 61,-67 101,-87 40,-21 87,-31 141,-31 51,0 96,9 135,28 38,18 70,45 96,81 25,35 44,79 57,131 12,52 19,112 19,180zm-100 7c0,-47 -3,-91 -10,-131 -7,-41 -19,-76 -35,-106 -17,-30 -39,-53 -66,-70 -28,-17 -62,-25 -102,-25 -41,0 -75,9 -102,27 -28,18 -50,42 -67,72 -17,30 -30,65 -37,106 -7,40 -11,82 -11,126 0,49 3,94 10,135 7,42 19,77 35,107 16,30 38,53 65,70 28,16 62,24 103,24 41,0 75,-9 103,-27 28,-18 50,-42 67,-73 17,-30 30,-66 37,-106 7,-41 10,-83 10,-129zm341 403c0,4 -1,7 -2,9 -2,3 -4,5 -8,6 -3,2 -8,3 -14,4 -6,2 -14,2 -23,2 -8,0 -16,0 -22,-2 -6,-1 -11,-2 -15,-4 -3,-1 -6,-3 -7,-6 -2,-2 -2,-5 -2,-9l0 -801c0,-4 0,-7 2,-9 2,-3 5,-5 8,-7 4,-1 9,-2 15,-4 6,-1 13,-1 21,-1 9,0 17,0 23,1 6,2 11,3 14,4 4,2 6,4 8,7 1,2 2,5 2,9l0 801zm572 -217c0,37 -6,70 -17,101 -12,30 -29,56 -51,78 -22,21 -49,38 -82,50 -33,11 -70,17 -112,17 -24,0 -45,-2 -64,-6 -19,-5 -35,-10 -49,-16 -14,-6 -24,-12 -32,-17 -8,-5 -13,-9 -16,-12 -4,-4 -6,-7 -7,-10 -2,-3 -3,-8 -4,-12 -1,-5 -1,-11 -2,-18 -1,-8 -1,-16 -1,-27 0,-13 1,-22 3,-27 2,-5 5,-7 10,-7 4,0 10,3 18,9 8,5 18,12 31,19 12,8 28,15 46,20 18,6 40,9 65,9 24,0 46,-4 66,-11 20,-7 36,-17 50,-30 14,-13 25,-28 33,-46 8,-19 11,-38 11,-60 0,-24 -3,-45 -10,-65 -8,-19 -18,-36 -33,-50 -14,-13 -32,-24 -53,-32 -22,-8 -46,-11 -74,-11l-83 0c-4,0 -7,-1 -10,-3 -2,-1 -5,-4 -7,-7 -1,-3 -3,-8 -3,-14 -1,-6 -1,-13 -1,-21 0,-9 0,-15 1,-21 0,-6 2,-10 3,-14 2,-3 5,-6 7,-8 3,-1 6,-2 10,-2l77 0c24,0 46,-4 66,-10 19,-6 36,-16 50,-28 14,-13 25,-28 32,-47 8,-18 12,-39 12,-63 0,-19 -3,-36 -8,-52 -5,-16 -13,-30 -24,-41 -11,-11 -24,-19 -39,-25 -16,-6 -35,-9 -56,-9 -23,0 -43,3 -62,9 -18,5 -33,12 -46,19 -13,7 -24,14 -33,20 -9,6 -16,9 -20,9 -3,0 -5,-1 -6,-2 -2,-2 -3,-4 -4,-7 -1,-3 -2,-8 -2,-13 0,-6 -1,-13 -1,-21 0,-5 1,-11 1,-16 0,-6 1,-11 2,-15 1,-4 2,-8 3,-12 2,-3 4,-7 7,-10 3,-4 10,-9 20,-15 11,-7 25,-13 41,-19 15,-6 33,-11 53,-15 21,-4 42,-6 65,-6 35,0 65,5 91,15 26,10 47,24 65,42 18,18 31,40 39,65 8,25 13,54 13,85 0,28 -4,53 -11,76 -7,22 -16,42 -29,59 -12,16 -26,30 -42,40 -17,11 -34,18 -52,22l0 2c22,3 42,10 61,22 19,11 36,26 49,45 14,18 25,39 33,63 8,24 12,49 12,77zm730 -193c0,67 -6,128 -20,182 -13,55 -33,101 -60,139 -26,38 -60,67 -100,87 -40,21 -87,31 -141,31 -53,0 -98,-9 -137,-28 -38,-19 -70,-46 -95,-82 -26,-35 -44,-80 -57,-133 -12,-52 -18,-113 -18,-182 0,-66 7,-126 20,-179 13,-54 34,-100 60,-137 27,-38 61,-67 101,-87 40,-21 87,-31 141,-31 51,0 96,9 135,28 38,18 70,45 96,81 25,35 44,79 57,131 12,52 18,112 18,180zm-99 7c0,-47 -3,-91 -10,-131 -7,-41 -19,-76 -35,-106 -17,-30 -39,-53 -66,-70 -28,-17 -62,-25 -102,-25 -41,0 -75,9 -102,27 -28,18 -50,42 -67,72 -17,30 -30,65 -37,106 -7,40 -11,82 -11,126 0,49 3,94 10,135 7,42 19,77 35,107 16,30 38,53 65,70 27,16 62,24 103,24 41,0 75,-9 103,-27 28,-18 50,-42 67,-73 17,-30 29,-66 37,-106 7,-41 10,-83 10,-129zm712 404c0,3 -1,6 -2,9 -2,2 -4,4 -8,6 -4,1 -8,3 -14,4 -6,1 -14,1 -23,1 -9,0 -16,0 -23,-1 -6,-1 -10,-3 -14,-4 -4,-2 -6,-4 -7,-6 -2,-3 -3,-6 -3,-9l0 -724 -197 0c-9,100 -19,187 -29,263 -10,76 -20,141 -31,197 -11,56 -23,102 -36,140 -13,36 -28,66 -45,89 -17,23 -36,38 -57,48 -21,9 -45,14 -73,14 -3,0 -6,-1 -9,-3 -3,-2 -6,-4 -8,-8 -2,-4 -3,-9 -4,-15 -1,-6 -1,-14 -1,-22 0,-11 0,-20 1,-27 1,-7 2,-12 3,-17 2,-4 4,-7 6,-9 3,-2 5,-3 8,-3 14,0 26,-3 38,-9 12,-7 23,-19 34,-37 11,-18 21,-42 31,-74 10,-33 20,-74 29,-126 9,-51 19,-113 28,-186 9,-74 18,-160 26,-260 2,-18 6,-31 11,-39 6,-7 14,-11 24,-11l312 0c10,0 18,4 24,11 6,8 9,19 9,34l0 774zm619 0c0,3 0,6 -2,9 -1,2 -4,4 -8,6 -3,1 -8,3 -14,4 -6,1 -13,1 -22,1 -10,0 -17,0 -23,-1 -6,-1 -11,-3 -14,-4 -4,-2 -6,-4 -8,-6 -1,-3 -2,-6 -2,-9l0 -349 -70 0c-29,0 -51,4 -66,11 -15,6 -28,17 -39,30 -11,13 -20,29 -28,47 -8,19 -15,39 -23,62l-60 193c-2,5 -4,9 -6,12 -2,4 -5,7 -9,8 -4,2 -9,4 -15,5 -6,1 -13,1 -23,1 -10,0 -18,0 -24,-2 -7,-1 -11,-2 -15,-4 -3,-1 -5,-4 -7,-6 -1,-2 -1,-5 -1,-9 0,-4 0,-9 1,-15 2,-6 4,-15 9,-28l57 -178c7,-21 14,-40 22,-58 7,-17 16,-32 24,-45 9,-13 18,-25 28,-34 11,-9 22,-16 34,-22 -22,-6 -41,-15 -59,-27 -17,-11 -32,-26 -44,-42 -12,-17 -21,-37 -27,-59 -7,-22 -10,-46 -10,-73 0,-34 5,-66 15,-95 10,-29 25,-54 45,-75 19,-21 45,-38 75,-49 30,-12 73,-18 129,-18l145 0c9,0 17,3 24,10 8,7 11,18 11,35l0 774zm-93 -728l-89 0c-37,0 -65,4 -84,11 -19,7 -34,17 -46,29 -12,13 -21,28 -26,46 -5,17 -8,36 -8,56 0,20 3,39 9,57 5,18 14,33 26,46 12,14 28,24 47,32 19,7 45,11 79,11l92 0 0 -288zm872 947c0,3 0,6 -2,8 -1,2 -3,4 -6,5 -3,1 -7,2 -12,3 -5,1 -12,2 -20,2 -8,0 -14,-1 -19,-2 -5,-1 -9,-2 -12,-3 -3,-1 -6,-3 -7,-5 -1,-2 -2,-5 -2,-8l0 -203 -480 0c-10,0 -18,-4 -24,-11 -6,-8 -9,-19 -9,-34l0 -774c0,-3 1,-6 2,-8 2,-3 4,-5 8,-7 4,-2 9,-3 15,-4 6,-1 13,-1 22,-1 9,0 16,0 23,1 6,1 10,2 14,4 4,2 6,4 8,7 1,2 2,5 2,8l0 724 315 0 0 -724c0,-3 0,-6 2,-8 1,-3 4,-5 8,-7 3,-2 8,-3 14,-4 6,-1 14,-1 23,-1 9,0 16,0 22,1 6,1 11,2 14,4 4,2 6,4 8,7 1,2 2,5 2,8l0 724 71 0c7,0 13,2 16,7 3,5 4,13 4,24l0 267zm211 -220c0,4 -1,7 -2,9 -1,3 -4,5 -8,6 -3,2 -8,3 -14,4 -6,2 -13,2 -22,2 -9,0 -17,0 -23,-2 -6,-1 -11,-2 -14,-4 -4,-1 -6,-3 -8,-6 -1,-2 -2,-5 -2,-9l0 -801c0,-4 1,-7 2,-9 2,-3 5,-5 8,-7 4,-1 9,-2 15,-4 6,-1 13,-1 22,-1 9,0 16,0 22,1 6,2 11,3 14,4 4,2 7,4 8,7 1,2 2,5 2,9l0 801zm619 1c0,3 -1,6 -2,9 -2,2 -4,4 -8,6 -4,1 -8,3 -14,4 -6,1 -14,1 -23,1 -9,0 -16,0 -22,-1 -6,-1 -11,-3 -15,-4 -3,-2 -6,-4 -7,-6 -2,-3 -3,-6 -3,-9l0 -349 -70 0c-28,0 -50,4 -65,11 -15,6 -28,17 -39,30 -11,13 -21,29 -28,47 -8,19 -16,39 -23,62l-61 193c-1,5 -3,9 -5,12 -2,4 -5,7 -9,8 -4,2 -9,4 -15,5 -6,1 -14,1 -23,1 -11,0 -19,0 -25,-2 -6,-1 -11,-2 -14,-4 -4,-1 -6,-4 -7,-6 -1,-2 -2,-5 -2,-9 0,-4 1,-9 2,-15 1,-6 4,-15 8,-28l58 -178c6,-21 14,-40 21,-58 8,-17 16,-32 25,-45 9,-13 18,-25 28,-34 10,-9 21,-16 34,-22 -22,-6 -42,-15 -59,-27 -17,-11 -32,-26 -44,-42 -12,-17 -21,-37 -28,-59 -6,-22 -9,-46 -9,-73 0,-34 5,-66 15,-95 9,-29 24,-54 44,-75 20,-21 45,-38 76,-49 30,-12 73,-18 128,-18l146 0c9,0 17,3 24,10 7,7 11,18 11,35l0 774zm-94 -728l-89 0c-37,0 -65,4 -84,11 -19,7 -34,17 -46,29 -11,13 -20,28 -25,46 -6,17 -8,36 -8,56 0,20 3,39 8,57 6,18 15,33 27,46 12,14 27,24 46,32 19,7 46,11 79,11l92 0 0 -288z"/>
  </g>
  <path class="fil0" d="M1160 3415c0,7 -2,13 -5,18 -3,5 -9,9 -17,13 -8,3 -18,6 -31,7 -14,2 -30,3 -51,3 -19,0 -35,-1 -49,-3 -13,-1 -24,-4 -32,-7 -7,-4 -13,-8 -17,-13 -3,-5 -5,-11 -5,-18l0 -1482 -705 0 0 1482c0,7 -2,13 -6,18 -3,5 -9,9 -16,13 -8,3 -19,6 -32,7 -13,2 -30,3 -50,3 -20,0 -36,-1 -50,-3 -13,-1 -24,-4 -32,-7 -8,-4 -13,-8 -16,-13 -4,-5 -5,-11 -5,-18l0 -1588c0,-30 7,-54 21,-69 14,-16 32,-23 53,-23l973 0c22,0 40,7 53,23 12,15 19,39 19,69l0 1588zm620 -1c0,7 -1,13 -5,18 -3,6 -8,10 -17,13 -7,3 -18,6 -31,8 -14,2 -30,3 -50,3 -20,0 -36,-1 -50,-3 -13,-2 -24,-5 -32,-8 -8,-3 -14,-7 -17,-13 -3,-5 -5,-11 -5,-18l0 -1645c0,-7 2,-13 5,-18 4,-6 10,-10 19,-13 8,-3 19,-6 32,-8 13,-2 29,-3 48,-3 20,0 36,1 50,3 13,2 24,5 31,8 9,3 14,7 17,13 4,5 5,11 5,18l0 1645zm1536 0c0,7 -1,13 -5,18 -3,6 -8,10 -16,13 -9,3 -19,6 -32,8 -14,2 -30,3 -49,3 -22,0 -39,-1 -51,-3 -14,-2 -24,-5 -32,-8 -8,-3 -14,-7 -17,-13 -3,-5 -5,-11 -5,-18l0 -760 -707 0 0 760c0,7 -2,13 -5,18 -4,6 -9,10 -17,13 -8,3 -19,6 -32,8 -13,2 -30,3 -50,3 -19,0 -36,-1 -49,-3 -14,-2 -25,-5 -33,-8 -8,-3 -13,-7 -17,-13 -3,-5 -5,-11 -5,-18l0 -1645c0,-7 2,-13 5,-18 4,-6 9,-10 17,-13 8,-3 19,-6 33,-8 13,-2 30,-3 49,-3 20,0 37,1 50,3 13,2 24,5 32,8 8,3 13,7 17,13 3,5 5,11 5,18l0 687 707 0 0 -687c0,-7 2,-13 5,-18 3,-6 9,-10 17,-13 8,-3 18,-6 32,-8 12,-2 29,-3 51,-3 19,0 35,1 49,3 13,2 23,5 32,8 8,3 13,7 16,13 4,5 5,11 5,18l0 1645zm1719 -842c0,138 -15,263 -44,374 -30,111 -75,206 -134,284 -59,78 -133,138 -222,180 -89,42 -193,62 -312,62 -117,0 -218,-19 -304,-57 -85,-38 -156,-94 -212,-168 -56,-73 -97,-164 -124,-272 -28,-108 -41,-233 -41,-374 0,-135 15,-258 44,-368 30,-111 75,-204 134,-281 59,-77 134,-137 223,-179 89,-42 193,-63 312,-63 114,0 214,19 299,57 85,38 157,93 213,166 57,73 99,163 126,270 28,107 42,230 42,369zm-220 15c0,-96 -7,-187 -23,-270 -16,-83 -41,-155 -78,-217 -37,-61 -85,-109 -146,-143 -61,-34 -136,-51 -226,-51 -90,0 -165,18 -226,55 -61,37 -111,86 -148,148 -39,62 -66,134 -82,216 -17,83 -25,169 -25,260 0,100 8,193 23,277 16,85 41,158 77,219 36,61 84,109 145,142 60,34 136,52 227,52 91,0 167,-19 229,-56 62,-37 111,-87 149,-150 37,-63 65,-136 81,-219 16,-82 23,-170 23,-263zm1668 828c0,7 -2,13 -5,18 -4,5 -9,9 -17,13 -8,3 -19,6 -32,7 -13,2 -30,3 -50,3 -19,0 -36,-1 -49,-3 -14,-1 -24,-4 -32,-7 -8,-4 -13,-8 -17,-13 -4,-5 -5,-11 -5,-18l0 -1482 -706 0 0 1482c0,7 -1,13 -5,18 -4,5 -9,9 -17,13 -8,3 -18,6 -31,7 -14,2 -30,3 -50,3 -20,0 -37,-1 -50,-3 -13,-1 -24,-4 -32,-7 -8,-4 -13,-8 -17,-13 -3,-5 -5,-11 -5,-18l0 -1588c0,-30 7,-54 21,-69 15,-16 32,-23 54,-23l972 0c23,0 41,7 53,23 13,15 20,39 20,69l0 1588zm1717 -843c0,138 -15,263 -44,374 -30,111 -75,206 -133,284 -60,78 -134,138 -223,180 -89,42 -193,62 -312,62 -117,0 -218,-19 -303,-57 -86,-38 -157,-94 -212,-168 -56,-73 -98,-164 -125,-272 -27,-108 -41,-233 -41,-374 0,-135 15,-258 44,-368 30,-111 75,-204 134,-281 60,-77 134,-137 223,-179 89,-42 193,-63 312,-63 115,0 215,19 300,57 85,38 156,93 212,166 57,73 99,163 127,270 27,107 41,230 41,369zm-219 15c0,-96 -8,-187 -24,-270 -15,-83 -41,-155 -78,-217 -36,-61 -85,-109 -146,-143 -61,-34 -136,-51 -226,-51 -90,0 -165,18 -226,55 -61,37 -110,86 -148,148 -38,62 -65,134 -82,216 -16,83 -25,169 -25,260 0,100 8,193 23,277 16,85 41,158 77,219 36,61 85,109 145,142 60,34 136,52 228,52 90,0 166,-19 228,-56 62,-37 111,-87 149,-150 38,-63 65,-136 81,-219 16,-82 24,-170 24,-263zm1576 828c0,7 -2,13 -5,18 -3,5 -9,9 -17,13 -8,3 -18,6 -31,7 -14,2 -30,3 -51,3 -20,0 -36,-1 -50,-3 -13,-1 -23,-4 -31,-7 -9,-4 -14,-8 -17,-13 -3,-5 -5,-11 -5,-18l0 -1485 -436 0c-22,204 -44,384 -65,539 -22,156 -45,290 -69,405 -24,115 -51,210 -80,286 -29,76 -62,137 -99,183 -38,47 -80,79 -127,98 -47,19 -100,29 -161,29 -8,0 -15,-2 -22,-6 -6,-3 -11,-9 -16,-17 -4,-8 -7,-18 -10,-31 -2,-12 -2,-27 -2,-45 0,-22 0,-40 2,-54 3,-14 5,-26 8,-35 4,-9 8,-15 13,-18 5,-4 11,-6 18,-6 29,0 57,-7 83,-20 26,-13 52,-38 75,-74 25,-37 48,-88 69,-154 23,-66 44,-151 65,-257 21,-105 41,-233 62,-383 19,-150 39,-328 58,-533 4,-37 12,-64 25,-79 11,-16 29,-23 52,-23l692 0c22,0 40,7 53,23 12,15 19,39 19,69l0 1588zm623 -1c0,7 -1,13 -4,18 -4,6 -9,10 -17,13 -8,3 -19,6 -32,8 -13,2 -30,3 -50,3 -19,0 -36,-1 -49,-3 -14,-2 -25,-5 -33,-8 -8,-3 -13,-7 -17,-13 -3,-5 -5,-11 -5,-18l0 -1645c0,-7 2,-13 6,-18 3,-6 10,-10 18,-13 8,-3 19,-6 32,-8 13,-2 29,-3 48,-3 20,0 37,1 50,3 13,2 24,5 32,8 8,3 13,7 17,13 3,5 4,11 4,18l0 1645zm1041 -443c-37,102 -72,186 -104,251 -32,64 -65,115 -99,151 -34,36 -70,61 -110,74 -39,13 -84,20 -136,20 -17,0 -35,-1 -53,-4 -18,-3 -36,-6 -52,-11 -16,-5 -30,-11 -42,-17 -13,-6 -22,-11 -27,-16 -6,-5 -10,-10 -13,-16 -3,-6 -5,-13 -7,-22 -2,-9 -3,-20 -4,-33 -1,-13 -1,-29 -1,-47 0,-34 2,-58 9,-73 6,-15 15,-23 27,-23 6,0 14,3 22,8 8,6 19,12 31,19 12,7 26,13 44,18 17,6 37,8 60,8 21,0 39,-2 56,-7 18,-5 34,-15 50,-31 15,-16 32,-39 49,-67 16,-29 35,-68 55,-117l-555 -1224c-8,-17 -12,-32 -13,-43 -1,-12 2,-20 9,-27 6,-6 17,-10 33,-12 15,-2 35,-3 60,-3 23,0 42,1 56,2 14,2 25,5 34,9 9,4 16,9 21,16 6,7 10,15 14,26l278 624c32,70 61,137 89,202 27,65 55,130 81,194l4 0c21,-67 44,-134 67,-200 22,-67 48,-140 77,-220l218 -611c3,-8 6,-14 10,-20 4,-5 11,-10 19,-13 9,-4 20,-6 35,-8 15,-1 34,-1 57,-1 24,0 43,1 57,4 15,2 25,6 32,11 6,6 10,13 10,22 0,9 -3,19 -8,31l-440 1176zm1631 -734c0,86 -13,163 -39,232 -25,69 -62,127 -110,176 -48,49 -106,86 -176,113 -69,26 -152,39 -248,39l-177 0 0 617c0,7 -2,13 -5,18 -4,6 -10,10 -17,13 -8,3 -18,6 -31,8 -14,2 -30,3 -50,3 -21,0 -37,-1 -51,-3 -13,-2 -23,-5 -31,-8 -9,-3 -14,-7 -17,-13 -3,-5 -5,-11 -5,-18l0 -1581c0,-35 9,-61 25,-76 17,-15 36,-22 57,-22l333 0c34,0 66,1 97,4 31,3 67,10 109,20 43,11 85,30 129,57 44,28 81,62 112,103 30,41 54,88 70,141 16,53 25,113 25,177zm-217 18c0,-70 -12,-129 -36,-176 -23,-46 -53,-81 -88,-104 -35,-23 -71,-38 -108,-44 -37,-6 -74,-9 -109,-9l-192 0 0 688 187 0c63,0 115,-9 156,-26 41,-18 76,-42 104,-74 28,-31 50,-69 64,-112 14,-44 22,-92 22,-143zm1402 1099c0,16 -1,30 -3,42 -1,11 -4,21 -8,29 -4,9 -8,14 -14,18 -5,3 -11,5 -17,5l-749 0c-18,0 -36,-7 -52,-20 -17,-14 -25,-38 -25,-73l0 -1528c0,-34 8,-58 25,-72 16,-13 34,-20 52,-20l740 0c6,0 12,2 18,5 5,4 9,9 12,17 3,9 6,18 8,30 2,12 3,27 3,44 0,17 -1,30 -3,42 -2,12 -5,22 -8,30 -3,7 -8,12 -12,16 -6,4 -12,6 -18,6l-610 0 0 536 524 0c6,0 12,2 17,6 5,4 10,10 13,17 4,7 7,17 8,29 2,12 3,27 3,44 0,16 -1,29 -3,41 -1,11 -4,20 -8,28 -3,7 -8,12 -13,15 -5,3 -11,5 -17,5l-524 0 0 612 619 0c6,0 12,2 17,6 6,3 10,9 14,16 4,8 7,18 8,29 2,12 3,27 3,45zm1298 -1522c0,17 -1,32 -2,44 -2,12 -5,22 -8,30 -4,7 -8,13 -13,16 -6,3 -12,5 -18,5l-437 0 0 1487c0,7 -2,13 -5,18 -4,6 -9,10 -17,13 -8,3 -19,6 -32,8 -13,2 -30,3 -50,3 -19,0 -36,-1 -49,-3 -14,-2 -25,-5 -33,-8 -8,-3 -13,-7 -17,-13 -3,-5 -4,-11 -4,-18l0 -1487 -438 0c-6,0 -12,-2 -17,-5 -6,-3 -10,-9 -13,-16 -3,-8 -6,-18 -8,-30 -2,-12 -3,-27 -3,-44 0,-16 1,-31 3,-44 2,-13 5,-23 8,-31 3,-8 7,-14 13,-17 5,-3 11,-5 17,-5l1082 0c6,0 12,2 18,5 5,3 9,9 13,17 3,8 6,18 8,31 1,13 2,28 2,44zm1239 1536c6,19 10,34 10,47 1,11 -3,20 -9,27 -6,6 -17,10 -32,11 -15,2 -34,3 -59,3 -25,0 -45,0 -60,-2 -15,-1 -26,-3 -34,-6 -7,-4 -13,-8 -16,-13 -4,-5 -7,-12 -11,-20l-133 -417 -648 0 -128 412c-2,8 -5,15 -9,20 -4,6 -10,11 -18,15 -7,4 -18,7 -32,8 -14,2 -32,3 -55,3 -23,0 -42,-1 -57,-3 -15,-2 -26,-6 -31,-13 -7,-6 -9,-15 -9,-27 0,-12 4,-27 10,-47l523 -1591c3,-10 7,-19 12,-24 6,-7 13,-12 23,-15 10,-4 23,-6 39,-8 16,-1 35,-1 60,-1 25,0 46,0 63,1 17,2 31,4 41,8 11,3 18,9 24,15 6,7 10,15 13,24l523 1593zm-671 -1406l-1 0 -268 854 541 0 -272 -854zm2053 1452c0,7 -2,13 -5,18 -3,6 -9,10 -17,13 -8,3 -19,6 -32,8 -13,2 -29,3 -49,3 -21,0 -38,-1 -51,-3 -13,-2 -23,-5 -31,-8 -8,-3 -14,-7 -17,-13 -3,-5 -5,-11 -5,-18l0 -760 -708 0 0 760c0,7 -1,13 -5,18 -3,6 -8,10 -17,13 -7,3 -18,6 -31,8 -14,2 -30,3 -50,3 -20,0 -36,-1 -50,-3 -13,-2 -24,-5 -32,-8 -8,-3 -14,-7 -17,-13 -3,-5 -5,-11 -5,-18l0 -1645c0,-7 2,-13 5,-18 3,-6 9,-10 17,-13 8,-3 19,-6 32,-8 14,-2 30,-3 50,-3 20,0 36,1 50,3 13,2 24,5 31,8 9,3 14,7 17,13 4,5 5,11 5,18l0 687 708 0 0 -687c0,-7 2,-13 5,-18 3,-6 9,-10 17,-13 8,-3 18,-6 31,-8 13,-2 30,-3 51,-3 20,0 36,1 49,3 13,2 24,5 32,8 8,3 14,7 17,13 3,5 5,11 5,18l0 1645zm1719 -842c0,138 -15,263 -45,374 -30,111 -74,206 -133,284 -59,78 -133,138 -222,180 -89,42 -193,62 -312,62 -117,0 -218,-19 -304,-57 -86,-38 -156,-94 -212,-168 -56,-73 -97,-164 -124,-272 -28,-108 -41,-233 -41,-374 0,-135 14,-258 44,-368 30,-111 74,-204 134,-281 59,-77 133,-137 223,-179 88,-42 192,-63 312,-63 114,0 214,19 299,57 85,38 156,93 213,166 56,73 99,163 126,270 28,107 42,230 42,369zm-220 15c0,-96 -8,-187 -23,-270 -16,-83 -42,-155 -78,-217 -37,-61 -85,-109 -146,-143 -61,-34 -137,-51 -226,-51 -90,0 -165,18 -226,55 -61,37 -111,86 -149,148 -38,62 -65,134 -81,216 -17,83 -25,169 -25,260 0,100 8,193 23,277 15,85 41,158 77,219 36,61 84,109 145,142 60,34 136,52 227,52 91,0 167,-19 229,-56 61,-37 111,-87 149,-150 37,-63 64,-136 80,-219 16,-82 24,-170 24,-263zm2242 827c0,7 -2,13 -5,18 -3,6 -9,10 -17,13 -8,3 -19,6 -32,8 -13,2 -29,3 -50,3 -19,0 -36,-1 -49,-3 -14,-2 -25,-5 -32,-8 -8,-3 -14,-7 -17,-13 -4,-5 -5,-11 -5,-18l0 -1493 -3 0 -548 1499c-2,7 -6,12 -10,16 -5,5 -11,8 -19,12 -9,3 -19,5 -31,6 -11,2 -25,2 -41,2 -17,0 -32,-1 -44,-3 -11,-1 -22,-4 -29,-7 -9,-3 -15,-7 -19,-11 -4,-5 -8,-9 -9,-15l-526 -1499 -1 0 0 1493c0,7 -2,13 -5,18 -3,6 -9,10 -17,13 -8,3 -19,6 -33,8 -13,2 -30,3 -50,3 -20,0 -37,-1 -50,-3 -13,-2 -24,-5 -31,-8 -8,-3 -14,-7 -16,-13 -3,-5 -5,-11 -5,-18l0 -1576c0,-37 9,-63 27,-79 18,-16 38,-24 60,-24l127 0c26,0 49,2 68,8 20,5 37,13 52,25 14,12 27,26 36,44 10,17 19,38 26,62l446 1241 6 0 463 -1237c9,-27 19,-49 30,-68 10,-18 22,-33 34,-44 13,-11 27,-19 42,-24 16,-5 34,-7 54,-7l134 0c12,0 24,2 35,6 10,4 20,10 28,18 7,9 14,19 19,32 4,13 7,29 7,47l0 1576z"/>
 </g>
</svg>
