<?xml version="1.0" encoding="UTF-8"?>
<!DOCTYPE svg PUBLIC "-//W3C//DTD SVG 1.1//EN" "http://www.w3.org/Graphics/SVG/1.1/DTD/svg11.dtd">
<!-- Creator: CorelDRAW X7 -->
<svg xmlns="http://www.w3.org/2000/svg" xml:space="preserve" width="24.2547mm" height="5.3988mm" version="1.1" style="shape-rendering:geometricPrecision; text-rendering:geometricPrecision; image-rendering:optimizeQuality; fill-rule:evenodd; clip-rule:evenodd"
viewBox="0 0 430 96"
 xmlns:xlink="http://www.w3.org/1999/xlink">
 <defs>
  <style type="text/css">
   <![CDATA[
    .fil0 {fill:#FEFEFE;fill-rule:nonzero}
   ]]>
  </style>
 </defs>
 <g id="Слой_x0020_1">
  <metadata id="CorelCorpID_0Corel-Layer"/>
  <path class="fil0" d="M7 10l-6 -1c1,-6 5,-9 11,-9 4,0 7,1 8,3 2,2 3,4 3,6 0,2 0,4 -1,5 -1,1 -2,3 -4,4 2,0 4,2 5,3 1,2 1,3 1,6 0,3 -1,5 -3,7 -2,2 -5,3 -9,3 -3,0 -6,0 -8,-2 -2,-1 -3,-3 -4,-7l6 -2c0,2 1,4 2,4 1,1 3,1 4,1 2,0 3,0 4,-1 1,-1 2,-2 2,-4 0,-1 -1,-2 -2,-3 -1,-1 -2,-2 -4,-2l-2 0 0 -5 1 0c2,0 3,0 4,-1 1,-1 2,-3 2,-4 0,-2 -1,-3 -1,-4 -1,-1 -2,-1 -4,-1 -3,0 -4,1 -5,4zm28 9l-6 -2c1,-2 2,-4 3,-5 2,-1 4,-2 7,-2 3,0 5,0 6,1 1,1 2,2 3,3 0,1 1,3 1,6l0 8c0,2 0,4 0,5 0,1 0,2 1,4l-6 0c0,-1 0,-2 -1,-2 0,-1 0,-1 0,-1 -1,1 -2,2 -3,2 -1,1 -3,1 -4,1 -2,0 -4,-1 -6,-2 -1,-1 -2,-3 -2,-5 0,-2 1,-3 1,-4 1,-2 2,-2 3,-3 1,-1 3,-1 5,-2 3,0 5,-1 6,-1l0 -1c0,-1 -1,-2 -1,-3 -1,0 -2,-1 -3,-1 -2,0 -2,0 -3,1 -1,0 -1,1 -1,3zm8 5c-1,0 -2,1 -4,1 -2,1 -3,1 -3,1 -1,1 -2,2 -2,3 0,1 1,2 1,2 1,1 2,1 3,1 1,0 2,0 3,-1 1,-1 1,-1 1,-2 1,-1 1,-2 1,-4l0 -1zm10 -1c0,-2 1,-4 2,-6 1,-3 2,-4 4,-5 2,-1 4,-2 6,-2 4,0 6,1 9,4 2,2 3,6 3,10 0,3 -1,7 -3,9 -3,3 -5,4 -9,4 -2,0 -4,0 -6,-1 -2,-1 -3,-3 -4,-5 -1,-2 -2,-5 -2,-8zm6 1c0,2 1,4 2,6 1,1 3,2 4,2 2,0 3,-1 4,-2 1,-2 2,-4 2,-6 0,-3 -1,-5 -2,-6 -1,-2 -2,-2 -4,-2 -1,0 -3,0 -4,2 -1,1 -2,3 -2,6zm23 -13l5 0 0 20 7 0 0 -20 6 0 0 20 7 0 0 -20 6 0 0 20 2 0 0 12 -5 0 0 -6 -28 0 0 -26zm42 8l-5 -2c0,-2 1,-4 3,-5 1,-1 4,-2 7,-2 2,0 4,0 6,1 1,1 2,2 2,3 1,1 1,3 1,6l0 8c0,2 0,4 0,5 1,1 1,2 2,4l-6 0c-1,-1 -1,-2 -1,-2 0,-1 0,-1 0,-1 -1,1 -2,2 -4,2 -1,1 -2,1 -3,1 -3,0 -5,-1 -6,-2 -1,-1 -2,-3 -2,-5 0,-2 0,-3 1,-4 1,-2 1,-2 3,-3 1,-1 2,-1 4,-2 3,0 5,-1 6,-1l0 -1c0,-1 0,-2 -1,-3 0,0 -1,-1 -3,-1 -1,0 -2,0 -2,1 -1,0 -1,1 -2,3zm8 5c0,0 -2,1 -3,1 -2,1 -3,1 -4,1 0,1 -1,2 -1,3 0,1 0,2 1,2 1,1 2,1 2,1 2,0 3,0 4,-1 0,-1 1,-1 1,-2 0,-1 0,-2 0,-4l0 -1zm31 13l-17 0 0 6 -5 0 0 -12 2 0c1,-1 2,-3 3,-6 1,-3 1,-8 1,-14l19 0 0 20 2 0 0 12 -5 0 0 -6zm-3 -6l0 -15 -8 0c0,7 -1,12 -3,15l11 0zm22 6l0 -12c-1,1 -1,1 -2,1 0,0 -1,1 -1,3l-3 8 -7 0 3 -8c2,-3 4,-5 6,-6 -2,0 -3,-2 -3,-4 -1,-2 -1,-3 -2,-3 0,-1 -1,-1 -3,-1l0 -4c1,-1 2,-1 3,-1 1,0 2,1 3,1 1,1 2,3 3,5 0,2 1,4 1,4 1,1 1,1 2,1l0 -10 6 0 0 10c1,0 1,0 2,-1 0,0 1,-2 1,-4 1,-2 2,-4 3,-5 1,0 2,-1 4,-1 0,0 1,0 2,1l0 4c-2,0 -3,0 -3,1 -1,0 -1,1 -2,3 0,2 -1,4 -3,4 2,1 4,3 5,6l4 8 -7 0 -3 -8c0,-1 -1,-2 -1,-3 -1,0 -1,0 -2,-1l0 12 -6 0zm19 -26l6 0 6 18 5 -18 7 0 -9 25 -1 4c-1,2 -1,3 -2,4 0,0 -1,1 -1,2 -1,0 -2,0 -3,1 0,0 -2,0 -3,0 -1,0 -2,0 -3,0l-1 -6c1,1 2,1 3,1 1,0 2,-1 3,-2 1,-1 1,-2 2,-3l-9 -26zm27 0l6 0 0 16 9 -16 6 0 0 26 -5 0 0 -17 -10 17 -6 0 0 -26zm15 -11l3 0c0,2 -1,4 -2,5 -2,2 -3,2 -5,2 -2,0 -3,0 -5,-2 -1,-1 -2,-3 -2,-5l3 0c0,1 1,2 1,3 1,0 2,1 3,1 1,0 2,-1 3,-1 0,-1 1,-2 1,-3zm10 11l21 0 0 5 -8 0 0 21 -6 0 0 -21 -7 0 0 -5zm38 17l6 1c-1,3 -2,5 -4,6 -2,2 -4,2 -6,2 -4,0 -7,-1 -9,-4 -2,-3 -2,-6 -2,-9 0,-5 1,-8 3,-10 2,-3 4,-4 7,-4 4,0 6,1 8,4 2,2 3,6 3,12l-15 0c0,2 0,3 1,4 1,1 2,2 4,2 1,0 2,0 2,-1 1,0 1,-1 2,-3zm0 -7c0,-2 0,-3 -1,-4 -1,-1 -2,-2 -3,-2 -2,0 -3,1 -4,2 -1,1 -1,2 -1,4l9 0zm23 -10l16 0 0 5 -10 0 0 21 -6 0 0 -26zm19 0l5 0 0 3c1,-1 2,-2 3,-3 2,-1 3,-1 4,-1 3,0 5,1 7,4 2,2 3,5 3,9 0,5 -1,8 -3,11 -2,2 -4,3 -7,3 -1,0 -2,0 -3,-1 -1,0 -2,-1 -3,-3l0 13 -6 0 0 -35zm6 12c0,3 0,5 1,7 1,1 2,2 4,2 1,0 2,-1 3,-2 1,-1 2,-4 2,-7 0,-2 -1,-4 -2,-6 -1,-1 -2,-2 -3,-2 -2,0 -3,1 -4,2 -1,2 -1,4 -1,6zm19 0c0,-2 1,-4 2,-6 1,-3 2,-4 4,-5 2,-1 4,-2 6,-2 4,0 7,1 9,4 2,2 3,6 3,10 0,3 -1,7 -3,9 -2,3 -5,4 -9,4 -2,0 -4,0 -6,-1 -2,-1 -3,-3 -4,-5 -1,-2 -2,-5 -2,-8zm7 1c0,2 0,4 1,6 1,1 3,2 4,2 2,0 3,-1 4,-2 1,-2 2,-4 2,-6 0,-3 -1,-5 -2,-6 -1,-2 -2,-2 -4,-2 -1,0 -3,0 -4,2 -1,1 -1,3 -1,6zm22 -13l5 0 0 20 7 0 0 -20 6 0 0 20 7 0 0 -20 6 0 0 26 -31 0 0 -26zm37 -4l0 -6 6 0 0 6 -6 0zm0 30l0 -26 6 0 0 26 -6 0zm-389 23l6 0 0 9 9 0 0 -9 6 0 0 26 -6 0 0 -11 -9 0 0 11 -6 0 0 -26zm32 8l-6 -1c1,-3 2,-5 4,-6 1,-1 3,-2 6,-2 3,0 5,1 6,1 2,1 3,2 3,3 1,1 1,3 1,6l0 8c0,3 0,4 0,5 0,1 1,3 1,4l-6 0c0,-1 0,-1 0,-2 0,-1 0,-1 -1,-1 -1,1 -2,2 -3,3 -1,0 -2,0 -4,0 -2,0 -4,0 -5,-2 -2,-1 -2,-3 -2,-5 0,-2 0,-3 1,-4 0,-1 1,-2 2,-3 1,0 3,-1 5,-1 3,-1 5,-2 6,-2l0 -1c0,-1 0,-2 -1,-3 0,0 -1,0 -3,0 -1,0 -2,0 -3,0 0,1 -1,2 -1,3zm8 5c-1,1 -2,1 -4,1 -1,1 -2,1 -3,2 -1,0 -1,1 -1,2 0,1 0,2 1,3 0,0 1,1 2,1 1,0 2,-1 3,-2 1,0 2,-1 2,-2 0,0 0,-2 0,-3l0 -2zm38 5l6 1c-1,2 -2,4 -4,5 -2,2 -4,2 -6,2 -4,0 -7,-1 -9,-4 -2,-2 -2,-5 -2,-9 0,-4 1,-8 3,-10 2,-3 4,-4 7,-4 3,0 6,2 8,4 2,3 3,7 3,12l-15 0c0,2 0,3 1,5 1,1 2,1 4,1 1,0 2,0 2,-1 1,0 1,-1 2,-2zm0 -7c0,-2 -1,-4 -1,-5 -1,-1 -2,-1 -4,-1 -1,0 -2,0 -3,1 -1,1 -1,3 -1,5l9 0zm11 -11l6 0 0 9 9 0 0 -9 6 0 0 26 -6 0 0 -11 -9 0 0 11 -6 0 0 -26zm40 18l6 1c-1,2 -2,4 -4,5 -1,2 -3,2 -6,2 -4,0 -7,-1 -9,-4 -1,-2 -2,-5 -2,-9 0,-4 1,-8 3,-10 2,-3 4,-4 7,-4 4,0 7,2 9,4 2,3 2,7 2,12l-15 0c0,2 1,3 2,5 1,1 2,1 3,1 1,0 2,0 3,-1 0,0 1,-1 1,-2zm0 -7c0,-2 0,-4 -1,-5 -1,-1 -2,-1 -3,-1 -1,0 -3,0 -3,1 -1,1 -2,3 -2,5l9 0zm11 -11l6 0 0 4c1,-2 2,-3 3,-4 1,0 2,-1 4,-1 3,0 5,1 7,4 2,2 3,5 3,10 0,4 -1,7 -3,10 -2,2 -4,3 -7,3 -1,0 -2,0 -3,0 -2,-1 -3,-2 -4,-3l0 13 -6 0 0 -36zm6 12c0,3 1,5 2,7 1,1 2,2 3,2 2,0 3,-1 4,-2 1,-1 1,-3 1,-6 0,-3 0,-5 -1,-6 -1,-2 -2,-2 -4,-2 -1,0 -2,0 -3,2 -1,1 -2,3 -2,5zm21 -12l16 0 0 5 -10 0 0 21 -6 0 0 -26zm17 12c0,-2 0,-4 1,-6 1,-2 3,-4 5,-5 1,-1 3,-2 6,-2 3,0 6,2 8,4 2,3 4,6 4,10 0,4 -2,7 -4,10 -2,2 -5,3 -8,3 -2,0 -4,0 -6,-1 -2,-1 -4,-3 -5,-5 -1,-2 -1,-5 -1,-8zm6 1c0,2 1,4 2,6 1,1 2,2 4,2 1,0 3,-1 4,-2 1,-2 1,-4 1,-6 0,-3 0,-5 -1,-6 -1,-1 -3,-2 -4,-2 -2,0 -3,1 -4,2 -1,1 -2,3 -2,6zm22 -13l6 0 0 9 9 0 0 -9 6 0 0 26 -6 0 0 -11 -9 0 0 11 -6 0 0 -26zm26 12c0,-2 0,-4 1,-6 1,-2 3,-4 4,-5 2,-1 4,-2 7,-2 3,0 6,2 8,4 2,3 3,6 3,10 0,4 -1,7 -3,10 -2,2 -5,3 -8,3 -3,0 -5,0 -6,-1 -2,-1 -4,-3 -5,-5 -1,-2 -1,-5 -1,-8zm6 1c0,2 0,4 2,6 1,1 2,2 4,2 1,0 2,-1 4,-2 1,-2 1,-4 1,-6 0,-3 0,-5 -1,-6 -2,-1 -3,-2 -4,-2 -2,0 -3,1 -4,2 -2,1 -2,3 -2,6zm42 -5l-6 1c-1,-2 -1,-3 -2,-3 0,-1 -1,-1 -3,-1 -1,0 -2,0 -3,1 -1,2 -1,4 -1,6 0,3 0,6 1,7 1,1 2,2 4,2 1,0 2,-1 2,-1 1,-1 2,-2 2,-4l6 1c-1,3 -2,5 -4,7 -1,2 -4,2 -7,2 -3,0 -6,-1 -8,-3 -2,-3 -3,-6 -3,-10 0,-4 1,-8 3,-10 2,-3 5,-4 8,-4 3,0 5,1 7,2 2,2 3,4 4,7zm4 -12l0 -6 6 0 0 6 -6 0zm0 30l0 -26 6 0 0 26 -6 0zm32 -26l0 26 -6 0 0 -11 0 0c-2,0 -3,0 -3,1 -1,0 -2,1 -2,2l-1 1 -4 7 -7 0 5 -8c1,-2 2,-3 3,-3 -2,-1 -3,-1 -4,-3 -1,-1 -2,-3 -2,-5 0,-1 1,-3 1,-4 1,-1 2,-2 3,-3 1,0 3,0 5,0l12 0zm-6 4l-4 0c-2,0 -3,0 -4,1 0,0 -1,1 -1,3 0,1 1,2 2,2 0,1 2,1 3,1l4 0 0 -7zm9 22l9 -14 -8 -12 7 0 4 7 5 -7 7 0 -8 12 8 14 -7 0 -5 -8 -4 8 -8 0zm30 -9l-1 -19 0 -8 6 0 0 8 -1 19 -4 0zm-1 9l0 -7 6 0 0 7 -6 0z"/>
 </g>
</svg>
