<?xml version="1.0" encoding="UTF-8"?>
<!DOCTYPE svg PUBLIC "-//W3C//DTD SVG 1.1//EN" "http://www.w3.org/Graphics/SVG/1.1/DTD/svg11.dtd">
<!-- Creator: CorelDRAW X7 -->
<svg xmlns="http://www.w3.org/2000/svg" xml:space="preserve" width="12.3782mm" height="4.4193mm" version="1.1" style="shape-rendering:geometricPrecision; text-rendering:geometricPrecision; image-rendering:optimizeQuality; fill-rule:evenodd; clip-rule:evenodd"
viewBox="0 0 190 68"
 xmlns:xlink="http://www.w3.org/1999/xlink">
 <defs>
  <style type="text/css">
   <![CDATA[
    .fil0 {fill:#4E565A;fill-rule:nonzero}
   ]]>
  </style>
 </defs>
 <g id="Слой_x0020_1">
  <metadata id="CorelCorpID_0Corel-Layer"/>
  <path class="fil0" d="M68 26l5 0 0 -21 7 0 0 -5 -19 0 0 5 7 0 0 21zm23 0l4 0c4,0 7,-3 7,-7l0 -12c0,-4 -3,-7 -7,-7l-4 0c-4,0 -7,3 -7,7l0 12c0,4 3,7 7,7zm-1 -5c-1,0 -2,-1 -2,-2l0 -12c0,-1 1,-2 2,-2l6 0c1,0 2,1 2,2l0 12c0,1 -1,2 -2,2l-6 0zm19 5l11 0c4,0 7,-3 7,-7l0 -2c0,-1 0,-3 -1,-4 1,-1 1,-3 1,-5l0 -1c0,-4 -3,-7 -7,-7l-11 0 0 26zm4 -5l0 -6 8 0c1,0 2,1 2,2l0 2c0,1 -1,2 -2,2l-8 0zm0 -11l0 -5 8 0c1,0 2,1 2,2l0 1c0,1 -1,2 -2,2l-8 0zm-95 46c0,0 0,0 1,0l0 -1c1,0 1,-1 1,-1 0,0 0,-1 -1,-1l-3 -4 3 -4c1,-1 1,-1 1,-1 0,-1 0,-1 -1,-1l0 -1c-1,0 -1,-1 -1,-1 -1,0 -1,1 -1,1l-7 6c0,0 0,0 0,1 0,0 0,1 0,1l7 6c0,0 0,0 1,0zm-10 0c0,0 1,0 1,0l1 -1c0,0 0,-1 0,-1 0,0 0,-1 0,-1l-4 -4 4 -4c0,-1 0,-1 0,-1 0,-1 0,-1 0,-1l-1 -1c0,0 -1,-1 -1,-1 0,0 -1,1 -1,1l-7 6c0,0 0,0 0,1 0,0 0,1 0,1l7 6c0,0 1,0 1,0zm18 4l4 0 0 -6 4 -5 5 8c0,1 0,1 0,3l0 0 5 0 0 0c0,-2 0,-4 -1,-6l-6 -9 7 -11 -5 0 -9 11 0 -11 -4 0 0 26zm28 1l4 0c3,0 6,-3 6,-7l0 -6c0,-4 -3,-7 -6,-7l-4 0c-4,0 -7,3 -7,7l0 6c0,4 3,7 7,7zm0 -5c-1,0 -2,0 -2,-1l0 -8c0,-1 1,-1 2,-1l4 0c1,0 2,0 2,1l0 8c0,1 -1,1 -2,1l-4 0zm20 4l5 0 0 -21 7 0 0 -5 -19 0 0 5 7 0 0 21zm19 1l4 0c3,0 6,-3 6,-7l0 -6c0,-4 -3,-7 -6,-7l-4 0c-4,0 -7,3 -7,7l0 6c0,4 3,7 7,7zm-1 -5c-1,0 -1,0 -1,-1l0 -8c0,-1 0,-1 1,-1l5 0c1,0 2,0 2,1l0 8c0,1 -1,1 -2,1l-5 0zm16 12l5 0 0 -9c1,1 2,2 3,2l3 0c3,0 6,-3 6,-6l0 -8c0,-3 -3,-6 -6,-6l-3 0c-1,0 -3,1 -3,2l0 -1 -5 0 0 26zm7 -12c-2,0 -2,0 -2,-2l0 -6c0,-1 1,-2 2,-2l2 0c3,0 3,0 3,2l0 6c0,1 -1,2 -2,2l-3 0zm15 -7l11 0 0 -4 -11 0 0 4zm16 11l5 0 0 -2c0,-1 0,-1 0,-1l5 -6 4 6c0,0 0,0 0,1l0 2 5 0 0 -3c0,-1 0,-1 -1,-2l-5 -8 5 -7c1,-1 1,-2 1,-2l0 -4 -5 0 0 3c0,0 0,0 0,0l-4 7 -5 -7c0,0 0,0 0,0l0 -3 -5 0 0 4c0,0 0,1 1,2l6 7 -6 8c-1,1 -1,1 -1,2l0 3zm26 -4c0,0 1,0 1,0l6 -6c1,0 1,-1 1,-1 0,-1 0,-1 -1,-1l-6 -6c0,0 -1,-1 -1,-1 0,0 -1,1 -1,1l-1 1c0,0 0,0 0,1 0,0 0,0 0,1l4 4 -4 4c0,0 0,1 0,1 0,0 0,1 0,1l1 1c0,0 1,0 1,0zm10 0c0,0 0,0 1,0l6 -6c0,0 1,-1 1,-1 0,-1 -1,-1 -1,-1l-6 -6c-1,0 -1,-1 -1,-1 -1,0 -1,1 -1,1l-1 1c0,0 -1,0 -1,1 0,0 1,0 1,1l4 4 -4 4c0,0 -1,1 -1,1 0,0 1,1 1,1l1 1c0,0 0,0 1,0z"/>
 </g>
</svg>
